<svg width="120" height="120" viewBox="0 0 120 120" fill="none" xmlns="http://www.w3.org/2000/svg">
<g clip-path="url(#clip0_220_407)">
<path d="M68.9286 26.3999C68.3035 26.5968 67.9258 27.2379 67.8991 28.0173C67.8912 28.2541 67.7502 28.4669 67.5267 28.5467L66.8457 28.842L67.1543 29.5948L67.7502 29.4166C68.0428 29.3128 68.2237 29.4831 68.3939 29.7411C68.8648 30.4487 69.591 30.8132 70.2587 30.603C71.1313 30.3264 71.525 29.1878 71.1526 28.0093C70.7801 26.8309 69.8039 26.1233 68.9313 26.3999H68.9286ZM70.0007 29.7917C69.6469 29.9034 69.0883 29.4964 68.8488 28.7382C68.6094 27.9774 68.8329 27.3257 69.1867 27.2139C69.5405 27.1022 70.0991 27.5092 70.3385 28.2674C70.578 29.0282 70.3519 29.6799 70.0007 29.7917Z" fill="#FDBC43"/>
<path d="M75.1083 75.26C75.1083 75.26 70.9051 56.9685 70.3093 48.2111C70.3013 48.0914 70.2534 45.2344 69.9714 45.2184C70.6604 39.6666 53.3239 47.3971 53.3239 47.3971L43.6168 61.7808C43.3641 62.0176 42.0367 61.0546 41.7653 60.9615C41.6509 60.9242 41.5605 60.8391 41.4887 60.7433L34.3381 51.0709C34.3381 51.0709 33.5214 49.3736 31.3161 50.7091C30.5819 51.1533 22.3166 56.0667 21.6303 56.8674C21.4893 57.6016 21.4414 60.3762 23.6467 59.7484C24.7268 59.4398 25.7483 59.0248 26.9826 58.7721C28.076 58.5487 29.6801 58.4635 30.7255 60.0863L32.4467 62.6374C35.2 66.9948 38.2592 73.1611 38.2592 73.1611C39.7941 74.3662 43.9866 74.7839 46.5351 72.5706C46.5351 72.5706 56.7183 62.5177 60.8682 56.096C62.9857 61.7569 66.4892 74.6243 69.8012 88.9361C70.5886 92.3438 71.4186 92.4476 71.9027 93.1392C72.4693 93.9533 73.8234 94.3869 75.2918 94.8497C77.7392 95.6185 80.8277 94.0623 80.8277 94.0623C79.4976 93.2004 79.0533 92.8812 78.2899 89.3325C77.1114 83.8631 76.1936 79.4685 75.1056 75.2627L75.1083 75.26Z" fill="#804220"/>
<path d="M31.1512 41.2733L19.6299 40.4486C19.2654 40.422 18.9436 40.6907 18.9116 41.0498L18.337 47.6657C18.3051 48.0248 18.5764 48.3361 18.9409 48.3627L30.4622 49.1873C30.8267 49.2139 31.1485 48.9453 31.1805 48.5861L31.7551 41.9702C31.787 41.6111 31.5156 41.2999 31.1512 41.2733Z" fill="#A7D87C"/>
<path d="M29.4116 42.2813C29.4116 42.6271 29.526 43.2789 30.2868 43.4465C30.3985 43.4704 30.473 43.5795 30.4624 43.6965L30.1937 46.7106C30.183 46.8223 30.1006 46.9101 29.9888 46.9313C29.7042 46.9819 29.1881 47.1708 29.0392 47.8571C29.0152 47.9741 28.9035 48.0513 28.7864 48.0433L21.0293 47.49C20.9149 47.482 20.8245 47.3942 20.8112 47.2798C20.7739 46.9659 20.5957 46.3807 19.7205 46.2131C19.6034 46.1918 19.5289 46.0801 19.5396 45.963L19.8136 42.8772C19.8242 42.7522 19.9306 42.6511 20.0583 42.6537C20.4308 42.6644 21.1437 42.5553 21.3246 41.7067C21.3485 41.5897 21.4602 41.5072 21.58 41.5152L29.1934 42.0579C29.3158 42.0658 29.4116 42.1643 29.4116 42.2866V42.2813Z" fill="#00AB42"/>
<path d="M24.6154 46.7398C25.6582 46.8382 27.1718 46.104 26.9963 44.335C26.8393 42.7548 25.2884 42.4781 24.5303 42.5978C23.7721 42.7176 22.6495 43.4252 22.6096 44.7632C22.5803 45.8007 23.4688 46.6307 24.6154 46.7398Z" fill="#A7D87C"/>
<path d="M21.3113 45.0986C21.6145 45.1279 22.0561 44.9124 22.0056 44.3963C21.9604 43.9361 21.5081 43.8563 21.2873 43.8909C21.0665 43.9255 20.7393 44.133 20.7287 44.5214C20.7207 44.8246 20.9788 45.0667 21.3139 45.0986H21.3113Z" fill="#A7D87C"/>
<path d="M28.2493 45.6785C28.5525 45.7077 28.9941 45.4922 28.9436 44.9762C28.8984 44.516 28.4461 44.4361 28.2253 44.4707C28.0045 44.5053 27.6773 44.7128 27.6667 45.1012C27.6587 45.4045 27.9167 45.6465 28.2519 45.6785H28.2493Z" fill="#A7D87C"/>
<path d="M32.9041 30.1669L25.0698 21.6755C24.8224 21.4068 24.4021 21.3829 24.1361 21.6223L19.1854 26.0515C18.9167 26.291 18.9008 26.7033 19.1508 26.972L26.9851 35.4633C27.2325 35.732 27.6528 35.7559 27.9189 35.5165L32.8695 31.0873C33.1382 30.8479 33.1541 30.4355 32.9041 30.1669Z" fill="#A7D87C"/>
<path d="M30.9433 29.7119C30.7065 29.9646 30.3448 30.518 30.7837 31.1591C30.8475 31.2548 30.8289 31.3825 30.7411 31.4597L28.4826 33.4708C28.4002 33.5453 28.2778 33.5532 28.182 33.4921C27.9399 33.3324 27.4345 33.117 26.8572 33.516C26.7588 33.5825 26.6258 33.5639 26.546 33.4788L21.2708 27.762C21.1937 27.6769 21.1884 27.5518 21.2549 27.4614C21.4437 27.2087 21.7124 26.658 21.191 25.9371C21.1219 25.8413 21.1431 25.7083 21.2309 25.6285L23.5453 23.5669C23.6411 23.4817 23.7874 23.4817 23.8752 23.5722C24.1385 23.8355 24.7344 24.2452 25.4447 23.7478C25.5431 23.6786 25.6814 23.6945 25.7612 23.7823L30.9353 29.3927C31.0178 29.4831 31.0205 29.6188 30.938 29.7093L30.9433 29.7119Z" fill="#00AB42"/>
<path d="M24.3966 29.6773C25.0882 30.4647 26.695 30.9648 27.7803 29.5549C28.7486 28.2967 27.8069 27.0331 27.1711 26.5994C26.538 26.1685 25.2345 25.9131 24.2875 26.8628C23.5533 27.5997 23.6357 28.8127 24.3939 29.6746L24.3966 29.6773Z" fill="#A7D87C"/>
<path d="M23.1119 26.219C23.314 26.4478 23.7822 26.5941 24.0988 26.1844C24.3808 25.8173 24.1068 25.4502 23.9206 25.3225C23.7343 25.1948 23.3566 25.123 23.0799 25.3997C22.8671 25.6152 22.8911 25.969 23.1119 26.219Z" fill="#A7D87C"/>
<path d="M27.7701 31.3904C27.9722 31.6192 28.4404 31.7655 28.757 31.3558C29.039 30.9887 28.765 30.6216 28.5788 30.4939C28.3925 30.3662 28.0148 30.2944 27.7381 30.5711C27.5253 30.7865 27.5493 31.1404 27.7701 31.3904Z" fill="#A7D87C"/>
<path d="M84.7088 55.4309L77.6991 64.6139C77.4783 64.9039 77.5262 65.3215 77.8082 65.545L83.0248 69.655C83.3068 69.8784 83.7165 69.8226 83.9373 69.53L90.9469 60.347C91.1677 60.057 91.1198 59.6393 90.8378 59.4159L85.6212 55.3059C85.3392 55.0824 84.9295 55.1383 84.7088 55.4309Z" fill="#A7D87C"/>
<path d="M84.5969 57.4393C84.8869 57.6282 85.4934 57.8889 86.052 57.3462C86.1345 57.2664 86.2648 57.2638 86.3579 57.3356L88.7308 59.2137C88.8186 59.2829 88.8479 59.4026 88.8027 59.5063C88.6883 59.7723 88.5633 60.307 89.0554 60.8071C89.1379 60.8923 89.1432 61.0279 89.0714 61.121L84.3521 67.3034C84.283 67.3938 84.1606 67.4231 84.0595 67.3699C83.7776 67.2289 83.1897 67.0586 82.5698 67.6971C82.4874 67.7822 82.3543 67.7849 82.2612 67.7104L79.8325 65.787C79.734 65.7072 79.7074 65.5636 79.7793 65.4598C79.9921 65.1539 80.2927 64.4968 79.6808 63.8823C79.5957 63.7972 79.5877 63.6589 79.6596 63.5631L84.291 57.4979C84.3655 57.4021 84.5011 57.3728 84.6022 57.4393H84.5969Z" fill="#00AB42"/>
<path d="M85.6958 63.8957C86.3502 63.079 86.5683 61.4084 84.9908 60.5838C83.5836 59.8495 82.5009 60.9934 82.187 61.6931C81.8704 62.3927 81.8464 63.7201 82.9451 64.4863C83.7964 65.0822 84.9775 64.7922 85.6958 63.893V63.8957Z" fill="#A7D87C"/>
<path d="M82.5115 65.7576C82.703 65.5182 82.7668 65.0314 82.3066 64.792C81.897 64.5765 81.5804 64.9117 81.49 65.1165C81.3968 65.3214 81.3915 65.7071 81.7107 65.9306C81.9581 66.1035 82.304 66.0183 82.5141 65.7576H82.5115Z" fill="#A7D87C"/>
<path d="M86.8025 60.2752C86.994 60.0358 87.0579 59.549 86.5977 59.3096C86.188 59.0941 85.8714 59.4293 85.781 59.6341C85.6879 59.839 85.6825 60.2247 86.0018 60.4481C86.2492 60.621 86.595 60.5359 86.8052 60.2752H86.8025Z" fill="#A7D87C"/>
<path d="M69.7371 88.1433L68.0107 91.5244C67.8005 91.9075 67.8112 92.7428 68.2022 92.9396L82.6391 99.5369C83.0807 99.7577 83.6101 99.5157 83.7378 99.0395C83.9931 98.0792 84.057 96.2117 80.8222 94.017C78.3562 94.8443 75.6295 94.4373 74.4005 93.3972C72.6926 91.9527 71.8068 88.1832 69.7371 88.1433Z" fill="#FF3008"/>
<path d="M36.0433 53.3345L34.0668 50.2753C33.4736 49.6661 32.8458 49.8577 32.468 50.0811L18.3849 58.4235C17.9619 58.6762 17.8821 59.2561 18.2173 59.6179C18.893 60.3468 20.3348 61.2699 23.9234 59.7137C24.5433 57.1892 27.9404 54.396 29.5285 54.1486C30.8958 53.9357 34.9021 55.0663 36.0433 53.3372V53.3345Z" fill="#FF3008"/>
<path d="M39.1319 57.6043C39.1319 57.6043 27.7702 70.9372 44.7157 81.0513C61.6026 91.1308 75.5846 76.1911 75.5846 76.1911L73.0894 51.2332L51.8158 52.6218C51.8158 52.6218 44.3885 61.6744 39.1346 57.6017L39.1319 57.6043Z" fill="#FFD0BC"/>
<path d="M44.5318 74.3981L43.4917 74.1773C43.4997 74.14 44.311 70.3253 44.7127 68.7132C45.1863 66.8165 47.1894 64.8533 49.3096 65.0688C50.2938 65.1698 51.0866 65.5742 51.6 66.2446C52.1693 66.9868 52.3661 68.003 52.1719 69.1814C51.9086 70.7802 51.4404 74.0203 51.435 74.0522L50.3816 73.9006C50.3869 73.8687 50.8551 70.6153 51.1211 69.0059C51.2675 68.1253 51.1398 67.3938 50.754 66.891C50.4189 66.4547 49.8974 66.1967 49.2031 66.1275C47.6682 65.9732 46.112 67.5002 45.7449 68.9713C45.3458 70.5674 44.5398 74.3608 44.5318 74.3981Z" fill="#404040"/>
<path d="M41.5896 72.8685C40.6719 73.1398 39.818 73.6479 39.4881 75.8133C39.1582 77.9787 38.549 83.6263 38.283 84.8447C38.017 86.063 37.8388 87.6858 40.0148 87.8001C42.4223 87.9252 49.5942 87.9225 50.7594 87.8055C52.1932 87.6618 53.4009 86.8584 53.7867 85.1C54.1724 83.3417 54.731 75.8 54.7709 75.2493C54.8348 74.3848 54.8507 72.8711 52.3395 72.8179C50.0544 72.77 42.5074 72.5971 41.5896 72.8685Z" fill="#FF2F07"/>
<path d="M49.94 78.8459C49.7272 78.1995 49.1393 77.8004 48.429 77.7925L43.0448 77.7393C42.941 77.7393 42.8453 77.8244 42.8266 77.9281C42.8187 77.9787 42.8266 78.0266 42.8559 78.0611L43.8083 79.2742C43.8934 79.3806 44.0211 79.4418 44.17 79.4444L47.9662 79.4817C48.1949 79.4817 48.3732 79.644 48.3811 79.8727C48.3918 80.1414 48.179 80.4074 47.905 80.4686C47.8677 80.4766 47.8305 80.4819 47.7932 80.4793L45.1756 80.4527C45.0719 80.4527 44.9761 80.5378 44.9575 80.6415C44.9495 80.6921 44.9575 80.74 44.9867 80.7745L45.9391 81.9876C46.0242 82.094 46.1519 82.1552 46.3009 82.1578L47.482 82.1685C49.0223 82.1844 50.4933 80.5165 49.94 78.8432" fill="white"/>
<path d="M52.382 63.7493C52.382 63.7493 52.6614 65.4492 52.821 66.5984C52.962 67.6066 52.7172 68.0349 52.4166 68.1466C52.0415 68.2876 51.693 67.9498 51.5361 67.4922C51.4031 67.1012 51.2754 66.734 51.1743 66.4547C51.1291 66.3297 50.9322 66.3802 50.9083 66.5212C50.7301 67.6917 50.5438 69.9609 49.4106 71.009C47.6123 72.6743 46.1066 70.6738 45.6704 69.4953C45.1037 67.971 44.8723 66.5665 45.3033 63.9116C45.3458 63.6562 52.3794 63.752 52.3794 63.752L52.382 63.7493Z" fill="#804220"/>
<path d="M89.0586 30.1165C89.0586 30.1165 89.721 28.6321 90.2504 27.6C90.7132 26.6929 91.1602 26.4827 91.4714 26.5652C91.8598 26.6663 91.9502 27.1424 91.8146 27.608C91.6975 28.0043 91.6257 28.3182 91.5486 28.6029C91.514 28.7306 91.6842 28.8184 91.7827 28.7146C92.602 27.858 94.0465 26.1582 95.5734 25.9507C98.0022 25.6208 97.9836 28.0496 97.6643 29.2653C97.252 30.8374 96.1161 32.6198 94.6876 34.1334C94.5093 34.3223 89.0586 30.1192 89.0586 30.1192V30.1165Z" fill="#804220"/>
<path d="M89.0479 29.9194C88.2365 31.1032 83.8259 36.6683 77.6702 37.751C75.5101 38.1314 71.9747 38.0596 70.0434 37.344C68.9262 36.929 67.5721 36.5672 66.5878 36.5007C64.9598 36.3917 62.6747 36.8572 61.294 37.5489C60.1129 38.1394 57.7666 39.395 55.7928 40.9433C45.6521 48.8866 45.3701 54.1645 45.2397 63.9513L52.3983 63.8848C52.4861 57.4471 53.5396 54.2868 54.593 52.6189C60.7992 55.2285 66.939 54.622 71.4161 53.7255C73.632 53.2813 74.1242 52.3954 73.8661 50.2806C73.6613 48.6153 73.6214 48.3945 73.5629 47.8864C73.4192 46.6494 74.1109 46.0695 75.3559 46.0748C76.9174 46.0801 80.6763 45.7795 83.3976 44.1009C87.9918 41.2678 90.8222 39.4243 94.5651 34.1039C94.5758 34.0879 89.0479 29.9167 89.0479 29.9167V29.9194Z" fill="#A8EBEB"/>
<path d="M64.3875 25.562C65.6324 25.8865 66.6007 26.7883 67.5425 28.1158C68.3219 29.2171 70.075 29.6826 70.4687 30.1588C70.8597 30.6377 70.7613 31.2123 70.3064 31.606C69.8515 31.9997 69.3913 32.1167 69.4791 32.6301C69.5483 33.0212 69.7398 33.8459 69.3088 34.8115C68.6996 36.1762 66.8349 37.3733 64.9035 37.3626C61.98 37.3467 60.6153 35.5404 59.639 33.915C58.6627 32.2896 57.6279 29.8689 58.6734 28.2195C59.9183 26.2536 62.0811 24.9608 64.3875 25.562Z" fill="#804220"/>
<path d="M67.9176 28.3315V28.3368C67.46 27.4802 66.654 27.0147 65.9171 27.2488C65.292 27.4456 64.9142 28.0867 64.8876 28.8662C64.8796 29.1029 64.6961 29.2492 64.4726 29.329L61.5225 29.8105L61.8124 30.6512L64.6642 30.167C65.018 30.1298 65.2095 30.3293 65.3824 30.5873C65.8533 31.2949 66.5795 31.6594 67.2472 31.4492C67.8777 31.2497 68.2554 30.6033 68.2794 29.8132C68.29 29.4381 68.6678 29.1614 69.0189 29.2944C69.0561 29.3077 69.096 29.3264 69.1386 29.3477C68.7608 28.773 67.9202 28.3288 67.9202 28.3288L67.9176 28.3315ZM66.9892 30.6378C66.638 30.7496 66.0767 30.3426 65.8373 29.5844C65.5979 28.8236 65.8213 28.1718 66.1751 28.0601C66.5263 27.9484 67.0876 28.3554 67.327 29.1136C67.5664 29.8744 67.3403 30.5261 66.9892 30.6378Z" fill="#FDBC43"/>
<path d="M101.631 24.4528L91.2265 20.4226C90.8966 20.2949 90.4896 20.4598 90.3167 20.7924L87.1138 26.9241C86.9409 27.2566 87.066 27.6291 87.3958 27.7568L97.7999 31.787C98.1297 31.9146 98.5367 31.7497 98.7097 31.4172L101.913 25.2854C102.085 24.9529 101.96 24.5805 101.631 24.4528Z" fill="#A7D87C"/>
<path d="M99.6033 24.9209C99.465 25.2508 99.308 25.9025 99.9492 26.2749C100.045 26.3308 100.069 26.4532 100.013 26.5622L98.5472 29.3528C98.494 29.4565 98.3796 29.5177 98.2679 29.5044C97.9833 29.4725 97.4246 29.5044 97.0123 30.1163C96.9431 30.22 96.8075 30.2626 96.7011 30.2227L89.6968 27.5093C89.593 27.4694 89.5451 27.3603 89.5797 27.2486C89.6728 26.94 89.7393 26.3335 88.9945 25.9264C88.896 25.8732 88.8694 25.7456 88.9253 25.6365L90.4256 22.7768C90.4868 22.6597 90.6278 22.5932 90.7422 22.6331C91.0854 22.7475 91.793 22.8459 92.3037 22.0904C92.3756 21.984 92.5112 21.9388 92.6177 21.9787L99.4916 24.6416C99.6007 24.6841 99.6512 24.8038 99.6033 24.9209Z" fill="#00AB42"/>
<path d="M93.3362 27.8125C94.2673 28.2009 95.9751 27.9295 96.5258 26.1951C97.0153 24.6495 95.6825 23.9472 94.927 23.8488C94.1715 23.7503 92.8414 24.1042 92.2642 25.3677C91.8173 26.3467 92.3121 27.3868 93.3362 27.8125Z" fill="#A7D87C"/>
<path d="M90.9208 25.3201C91.1921 25.4345 91.6896 25.3547 91.8492 24.8492C91.9928 24.397 91.6018 24.1948 91.3836 24.1656C91.1628 24.1363 90.7744 24.24 90.6069 24.6098C90.4765 24.8944 90.6202 25.1977 90.9181 25.3227L90.9208 25.3201Z" fill="#A7D87C"/>
<path d="M97.1507 27.8259C97.4221 27.9403 97.9195 27.8605 98.0791 27.3551C98.2228 26.9028 97.8317 26.7007 97.6136 26.6714C97.3955 26.6422 97.0044 26.7459 96.8368 27.1157C96.7065 27.4003 96.8501 27.7036 97.1481 27.8286L97.1507 27.8259Z" fill="#A7D87C"/>
<path d="M89.2554 29.6905C89.2554 29.6905 89.7209 28.6344 90.2503 27.6023C90.7132 26.6952 91.1601 26.485 91.4713 26.5675C91.8597 26.6686 91.9502 27.1447 91.8145 27.6103C91.6974 28.0066 91.6017 28.4429 91.5218 28.7275C91.4873 28.8552 91.3915 29.225 91.3569 29.3633L89.2554 29.6905Z" fill="#804220"/>
<path d="M93.9827 42.6938L83.0626 38.9296C82.7168 38.8099 82.3363 38.9881 82.214 39.326L79.9528 45.5721C79.8304 45.91 80.0113 46.2797 80.3572 46.3995L91.2773 50.1636C91.6231 50.2833 92.0035 50.1051 92.1259 49.7673L94.387 43.5211C94.5094 43.1833 94.3285 42.8135 93.9827 42.6938Z" fill="#A7D87C"/>
<path d="M92.0409 43.2206C91.9531 43.5557 91.8946 44.2128 92.5862 44.5719C92.69 44.6251 92.7325 44.7475 92.6926 44.8566L91.6578 47.6977C91.6206 47.8014 91.5142 47.8679 91.4024 47.8573C91.1151 47.8333 90.5671 47.8812 90.2479 48.5064C90.1947 48.6128 90.067 48.6607 89.9553 48.6208L82.6025 46.0856C82.4934 46.0483 82.4296 45.9419 82.4456 45.8275C82.4908 45.5163 82.4668 44.9018 81.6661 44.5161C81.5597 44.4655 81.5145 44.3378 81.5544 44.2261L82.6158 41.3159C82.6584 41.1961 82.7887 41.127 82.9084 41.1642C83.2649 41.2706 83.9831 41.3478 84.3742 40.5763C84.4274 40.4699 84.5551 40.4167 84.6695 40.4566L91.8839 42.9439C91.9983 42.9838 92.0675 43.1035 92.0356 43.2206H92.0409Z" fill="#00AB42"/>
<path d="M86.2573 46.2957C87.2389 46.6602 88.8909 46.3409 89.1782 44.5852C89.4336 43.0184 88.0051 42.3506 87.2416 42.2708C86.4781 42.191 85.2119 42.5847 84.8288 43.8696C84.5309 44.8645 85.18 45.8967 86.2573 46.2957Z" fill="#A7D87C"/>
<path d="M83.4907 43.859C83.778 43.9654 84.2595 43.8723 84.342 43.3589C84.4165 42.9013 83.9988 42.7072 83.778 42.6832C83.5546 42.6593 83.1875 42.7737 83.0757 43.1487C82.988 43.4387 83.1768 43.7393 83.4907 43.8564V43.859Z" fill="#A7D87C"/>
<path d="M90.043 46.2052C90.3303 46.3116 90.8118 46.2185 90.8942 45.7051C90.9687 45.2475 90.5511 45.0533 90.3303 45.0294C90.1095 45.0055 89.7397 45.1198 89.628 45.4949C89.5402 45.7849 89.7291 46.0855 90.043 46.2025V46.2052Z" fill="#A7D87C"/>
<path d="M61.5358 25.7935C59.5779 26.8257 57.9286 26.2272 57.1598 25.6073C55.9148 24.6071 55.7925 23.3382 54.1139 22.6386C52.3848 21.9176 50.8206 22.6838 49.8815 23.2717C48.5355 24.115 47.7135 24.2746 46.1067 23.4446C44.4999 22.6146 44.3456 21.4627 42.2068 21.5798C39.4801 21.7261 36.2267 25.4983 36.8412 29.9967C37.4557 34.4951 39.3338 36.6871 42.6857 36.8653C45.8832 37.0356 47.881 33.9125 49.4559 33.4709C52.6215 32.5824 52.4619 33.9151 54.9439 35.6895C58.4473 38.1927 62.4935 36.6871 62.4935 36.6871C63.6241 35.7906 63.3794 34.4552 62.3871 34.2477C61.2539 34.0109 60.2217 32.9362 60.1712 32.3855C60.0967 31.5662 60.8575 31.1166 61.5438 31.1725C62.5201 31.2523 63.4246 30.5659 63.6986 29.8344C64.2014 28.4963 64.1082 27.7781 64.1561 27.129C64.204 26.4799 64.4807 26.5118 64.7228 26.5783C65.2894 26.7353 66.013 26.6581 66.1699 26.5145C65.6432 25.4903 63.5815 24.7135 61.5358 25.7935Z" fill="#404040"/>
</g>
<defs>
<clipPath id="clip0_220_407">
<rect width="83.9809" height="79.2399" fill="white" transform="translate(18.0093 20.3794)"/>
</clipPath>
</defs>
</svg>
