<svg width="186" height="176" viewBox="0 0 186 176" fill="none" xmlns="http://www.w3.org/2000/svg">
<g clip-path="url(#clip0_2368_6440)">
<g clip-path="url(#clip1_2368_6440)">
<path d="M54.0312 107.795L68.4612 123.388C68.4612 123.388 73.0032 120.596 86.5939 124.764C97.032 127.966 113.134 130.265 124.51 122.316C132.296 116.872 157.411 91.4957 162.306 85.8676C167.2 80.2395 174.662 74.4915 174.902 62.9954C175.149 51.4994 173.068 46.4848 165.726 38.1696C158.384 29.8543 141.754 14.9306 138.82 11.2632C135.886 7.59574 126.879 2.46836 118.515 3.43459C108.718 4.56304 102.371 6.12876 94.0557 14.6838C85.7405 23.2459 61.0346 45.7513 56.8734 52.5996C52.7123 59.4479 49.1647 68.7434 51.612 83.4203C53.9042 97.1873 56.2316 103.634 54.0312 107.788V107.795Z" fill="#9777C9"/>
<path d="M156.12 117.45C149.194 118.642 141.599 121.851 136.351 128.65C131.626 134.772 129.094 142.65 129.475 150.217C129.834 157.305 133.051 164.725 141.126 169.549C148.778 174.119 160.098 173.52 167.609 170.226C175.685 166.686 180.389 161.537 183.118 154.646C187.188 144.378 185.065 134.109 180.784 127.077C176.446 119.961 166.29 115.694 156.127 117.45H156.12Z" fill="#FDBC43"/>
<path d="M148.602 125.878C147.544 126.061 146.38 126.548 145.583 127.592C144.864 128.53 144.462 129.828 144.518 130.984C144.575 132.063 145.238 133.291 146.31 133.834C147.304 134.334 148.99 134.306 150.104 133.728C151.374 133.072 152.023 132.388 152.474 131.351C153.031 130.074 152.932 128.297 152.368 127.352C151.719 126.259 150.154 125.61 148.602 125.878Z" fill="white"/>
<path d="M170.459 127.796C169.401 127.98 168.237 128.466 167.44 129.51C166.721 130.448 166.319 131.746 166.375 132.903C166.432 133.982 167.095 135.209 168.167 135.752C169.161 136.253 170.847 136.225 171.961 135.646C173.23 134.99 173.879 134.306 174.331 133.269C174.888 131.993 174.789 130.216 174.225 129.27C173.576 128.177 172.01 127.528 170.459 127.796Z" fill="white"/>
<path d="M140.463 147.093C139.37 147.276 138.164 147.756 137.332 148.778C136.584 149.695 136.161 150.972 136.217 152.107C136.267 153.165 136.951 154.364 138.065 154.893C139.095 155.38 140.844 155.345 141.994 154.773C143.312 154.125 143.982 153.454 144.455 152.439C145.033 151.183 144.942 149.449 144.363 148.525C143.693 147.46 142.078 146.832 140.47 147.1L140.463 147.093Z" fill="white"/>
<path d="M158.278 140.865C157.22 141.049 156.057 141.535 155.26 142.579C154.54 143.517 154.138 144.815 154.195 145.971C154.251 147.051 154.914 148.278 155.986 148.821C156.981 149.322 158.666 149.293 159.781 148.715C161.05 148.059 161.699 147.375 162.15 146.338C162.708 145.062 162.609 143.284 162.045 142.339C161.396 141.246 159.83 140.597 158.278 140.865Z" fill="white"/>
<path d="M173.407 149.011C172.349 149.195 171.185 149.681 170.388 150.725C169.669 151.663 169.267 152.961 169.323 154.117C169.38 155.197 170.042 156.424 171.115 156.967C172.109 157.468 173.795 157.439 174.909 156.861C176.178 156.205 176.827 155.521 177.279 154.484C177.836 153.208 177.737 151.43 177.173 150.485C176.524 149.392 174.958 148.743 173.407 149.011Z" fill="white"/>
<path d="M155.253 157.39C154.195 157.573 153.031 158.06 152.234 159.104C151.515 160.042 151.113 161.34 151.169 162.496C151.226 163.575 151.889 164.802 152.961 165.346C153.955 165.846 155.641 165.818 156.755 165.24C158.025 164.584 158.673 163.9 159.125 162.863C159.682 161.586 159.583 159.809 159.019 158.864C158.37 157.771 156.804 157.122 155.253 157.39Z" fill="white"/>
<path d="M54.7858 105.7C54.7858 105.7 52.0493 107.851 50.1874 109.248C47.7612 111.067 46.9854 112.513 46.8302 113.557C46.4141 116.244 45.469 116.879 44.0796 118.078C42.8383 119.157 18.0055 140.668 12.596 145.266C12.1164 145.675 11.4323 146.317 9.59149 146.43C8.90737 146.472 7.53208 146.486 6.0792 147.65C4.04095 149.279 3.39914 149.745 2.34828 151.007C1.09288 152.509 1.80521 153.73 2.87724 155.74C4.68275 159.118 9.74665 164.817 12.1305 166.389C14.1546 167.722 14.6977 168.103 17.406 166.333C19.1128 165.226 20.2765 164.21 20.742 163.766C21.9621 162.602 21.9057 162.08 22.0256 160.853C22.082 160.267 22.6321 159.301 23.1328 158.871C28.4154 154.336 54.6165 131.795 55.1948 131.288C57.5505 129.249 58.5802 129.722 61.1897 128.96C62.5862 128.551 63.8063 127.909 65.0899 126.746C67.1282 124.891 69.3216 123.022 69.3216 123.022C69.3216 123.022 64.9841 117.718 61.4859 113.634C58.3827 110.009 54.7928 105.679 54.7928 105.679L54.7858 105.7Z" fill="#BB6500"/>
<path d="M12.5959 145.266L27.7242 154.921L37.2666 146.775L21.4401 137.699L12.5959 145.266Z" fill="#FF8A00"/>
<path d="M29.1207 131.027L44.5593 140.569L53.5657 132.656L37.7322 123.501L29.1207 131.027Z" fill="#FF8A00"/>
</g>
</g>
<defs>
<clipPath id="clip0_2368_6440">
<rect width="184.98" height="176" fill="white" transform="translate(0.926758)"/>
</clipPath>
<clipPath id="clip1_2368_6440">
<rect width="183.612" height="169.521" fill="white" transform="translate(1.6853 3.3147)"/>
</clipPath>
</defs>
</svg>
