<svg width="186" height="176" viewBox="0 0 186 176" fill="none" xmlns="http://www.w3.org/2000/svg">
<g clip-path="url(#clip0_2368_6747)">
<g clip-path="url(#clip1_2368_6747)">
<path d="M154.589 3.4093H93.7254C92.5947 3.4093 91.4712 4.3253 91.2136 5.44883L84.3149 35.4264H93.9043L98.8135 13.8932C98.928 13.3994 99.4146 12.9987 99.9084 12.9987H143.948C144.442 12.9987 144.749 13.3994 144.635 13.8932L139.726 35.4264H149.315L156.164 5.45599C156.421 4.3253 155.713 3.4093 154.582 3.4093L154.589 3.4093Z" fill="#951C39"/>
<path d="M132.92 3.4093H72.056C70.9253 3.4093 69.8018 4.3253 69.5441 5.44883L62.6455 35.4264H72.2349L77.1441 13.8932C77.2586 13.3994 77.7452 12.9987 78.239 12.9987H122.279C122.772 12.9987 123.08 13.3994 122.966 13.8932L118.056 35.4264H127.646L134.494 5.45599C134.752 4.3253 134.043 3.4093 132.913 3.4093L132.92 3.4093Z" fill="#FF3008"/>
<path d="M122.028 135.614L147.182 24.7921C143.003 24.2912 53.6285 24.6204 51.8609 25.3575L25.8408 139.664C24.9176 143.722 27.4581 147.014 31.5157 147.014H35.5089C36.9044 147.014 38.2139 146.327 38.9725 145.153C42.8584 139.192 49.7355 133.438 61.3716 133.725C65.8872 133.832 72.9218 136.637 75.6197 144.237C76.2136 145.905 77.7737 147.042 79.5484 147.042L98.4409 147.057C99.7362 147.057 100.96 146.463 101.74 145.432C105.654 140.258 112.016 135.657 122.035 135.607L122.028 135.614Z" fill="#FF3008"/>
<path d="M158.955 24.7421C153.974 24.7135 149.544 24.4773 147.254 24.8423L121.885 135.614C122.257 135.614 122.63 135.607 123.009 135.614C127.238 135.714 133.629 138.219 136.699 144.76C137.829 147.164 138.846 147.143 140.456 147.143H143.762C147.834 147.171 152.135 144.867 152.764 139.013L159.448 25.4076C159.527 25.0498 159.305 24.7493 158.947 24.7421H158.955Z" fill="#B71000"/>
<path d="M110.27 76.1239C108.052 71.9088 103.644 69.3254 98.9061 69.3254H62.9101C62.2231 69.3254 61.6721 69.8836 61.6793 70.5706C61.6793 70.8998 61.8081 71.2075 62.0442 71.4365L69.8875 79.3227C70.5816 80.0169 71.5191 80.4105 72.4995 80.4105H97.8827C99.4142 80.4105 100.795 81.441 101.125 82.9438C101.532 84.7042 100.438 86.4647 98.6771 86.8726C98.4409 86.9298 98.1976 86.9584 97.9543 86.9584H80.4573C79.7703 86.9584 79.2192 87.5166 79.2264 88.2036C79.2264 88.5328 79.3552 88.8405 79.5914 89.0695L87.4418 96.9557C88.1359 97.6499 89.0734 98.0435 90.061 98.0435H97.9615C108.252 98.0435 116.038 87.0372 110.292 76.1167" fill="white"/>
<path d="M60.7351 137.152C65.5656 137.267 73.8454 141.067 73.6307 152.195C73.4518 161.326 67.004 175.295 52.4983 174.759C37.463 174.2 37.098 159.537 38.7082 153.805C40.3827 147.858 46.0505 136.795 60.7351 137.152Z" fill="#404040"/>
<path d="M57.5147 148.259C60.2913 148.416 65.1289 150.406 62.5312 157.748C60.1983 164.346 54.6594 163.774 52.5912 162.851C50.1724 161.777 49.0918 158.127 50.2654 154.342C51.4319 150.578 54.3874 148.073 57.5219 148.252L57.5147 148.259Z" fill="#951C39"/>
<path d="M122.286 138.985C127.116 139.099 135.396 142.899 135.181 154.027C135.002 163.158 128.555 177.127 114.049 176.591C99.0135 176.032 98.6486 161.369 100.259 155.637C101.933 149.69 107.601 138.627 122.286 138.985Z" fill="#404040"/>
<path d="M119.058 150.084C121.835 150.241 126.673 152.231 124.075 159.573C121.742 166.171 116.203 165.599 114.135 164.675C111.716 163.602 110.635 159.952 111.809 156.167C112.976 152.402 115.931 149.898 119.066 150.077L119.058 150.084Z" fill="#951C39"/>
</g>
</g>
<defs>
<clipPath id="clip0_2368_6747">
<rect width="184.98" height="176" fill="white" transform="translate(0.426758)"/>
</clipPath>
<clipPath id="clip1_2368_6747">
<rect width="133.822" height="173.196" fill="white" transform="translate(25.6477 3.40936)"/>
</clipPath>
</defs>
</svg>
