<svg width="120" height="120" viewBox="0 0 120 120" fill="none" xmlns="http://www.w3.org/2000/svg">
<g clip-path="url(#clip0_220_291)">
<path d="M59.125 58.6965C49.7523 57.9435 41.7731 57.3465 40.7593 56.9057C37.7043 55.5749 38.6334 51.4266 38.6334 51.4266L19.4261 49.6851C18.8796 50.3422 16.8766 58.294 19.7977 63.3295C22.9976 68.8415 35.2668 68.6498 37.3737 68.6498C39.8958 68.6498 44.1122 68.6498 50.6458 68.5156C50.9027 68.5102 51.0885 68.7593 51.0092 69.003L45.3883 82.9679L55.8814 86.0456L63.877 67.0096C65.399 63.5814 64.1393 59.099 59.1277 58.6965H59.125Z" fill="#404040"/>
<path d="M61.4205 81.1307C61.7184 81.3278 72.4164 88.5786 72.4164 88.5786C72.4164 88.5786 67.066 92.1464 64.4919 92.3436C61.9178 92.5407 60.9287 89.9011 60.9287 89.9011L53.1025 85.4954L61.4232 81.1279L61.4205 81.1307Z" fill="#804220"/>
<path d="M58.1551 94.9915C58.4447 93.888 57.737 92.3601 56.5292 90.8788C55.9253 90.1395 55.4444 89.4905 55.07 88.8388C54.3486 87.582 54.3951 86.0267 55.141 84.726C55.1902 84.6411 49.6349 81.8893 49.4136 81.7852L44.4239 79.967C44.4239 79.967 42.8663 83.283 41.9427 84.9013C41.1338 86.3224 40.1446 88.1926 42.1613 89.4795C44.1779 90.7665 48.1593 92.3738 50.4301 93.4691C52.9796 94.6986 55.3269 95.8103 56.2505 95.939C57.1714 96.0677 57.8654 96.095 58.1524 94.9915H58.1551Z" fill="#D6D6D6"/>
<path d="M16.4425 68.3679C16.4562 67.1138 17.306 66.1034 18.3498 66.0979C19.2215 66.0924 20.0249 66.0842 20.2381 66.0842H38.5081C39.4809 66.0842 40.2706 67.0316 40.2706 68.2009V97.2093H38.3168L37.8222 70.9801C37.8222 70.4955 37.4943 70.1012 37.0899 70.1012H19.4347C19.0303 70.1012 18.7023 70.4955 18.7023 70.9801L18.2078 97.2093H16.1802L16.4425 68.3679Z" fill="#404040"/>
<path d="M80.0024 94.8108C79.7865 93.6908 78.4858 92.623 76.7561 91.8124C75.8926 91.4099 75.3105 90.928 74.7613 90.416C73.3076 89.0606 72.4304 88.5184 70.8455 87.1301C70.1842 87.6257 70.6679 88.8278 66.2438 89.4905C64.372 89.7697 59.9644 89.5178 59.9644 89.5178C59.9644 89.5178 60.3824 90.7336 60.2513 92.5956C60.1365 94.2275 60.4672 96.5139 62.8418 96.796C65.2164 97.078 69.8645 96.796 72.3812 96.796C75.2122 96.796 77.8081 96.7768 78.6935 96.4893C79.5788 96.2045 80.2155 95.928 79.9996 94.808L80.0024 94.8108Z" fill="#D6D6D6"/>
<path d="M55.7944 48.5051C57.1826 47.1032 59.3468 46.5254 60.6065 47.1908C61.8662 47.8562 65.7301 51.6486 64.2463 52.1277C62.7652 52.6097 55.2397 52.3879 54.2396 52.177C53.2395 51.9662 54.7615 49.5456 55.7917 48.5051H55.7944Z" fill="#804220"/>
<path d="M21.902 46.7253C21.1287 47.0895 15.8275 53.3436 15.9559 59.165C16.169 68.5707 26.1922 72.9901 27.9738 74.1183C30.1271 75.4792 53.5644 87.2069 55.4718 87.2507C57.3791 87.2945 63.1093 82.5273 62.1885 80.8077C60.7019 78.0284 39.549 63.8473 38.1882 62.3057C35.9803 59.8057 38.5708 56.4405 38.5708 56.4405L21.8993 46.7253H21.902Z" fill="#6C87F8"/>
<path d="M42.3962 32.0566C42.0983 34.3402 42.3606 36.7416 43.4346 38.7898C44.5085 40.838 47.2219 41.0789 48.6647 39.9645C51.4164 37.8396 50.4628 34.3649 50.9683 34.2416C51.2743 34.165 51.5421 34.1951 51.7553 34.1951C52.1214 34.1951 52.6925 33.8227 52.3346 33.0697C51.6022 31.5363 51.0093 31.0845 51.3481 29.6634C51.6842 28.2423 52.6871 26.268 51.1541 25.0659C49.6238 23.8639 46.4103 23.7324 45.126 25.4958C43.3936 27.8726 42.6913 29.7729 42.3962 32.0566Z" fill="#804220"/>
<path d="M55.2534 52.0893C54.7041 52.1441 54.6467 52.4973 54.7861 53.5214C54.9774 54.9261 54.8134 55.282 55.9392 55.2547C57.587 55.2136 68.8753 55.0904 70.1131 55.0904C71.351 55.0904 72.996 55.2547 73.7393 52.7793C74.4798 50.3013 78.2726 37.1743 78.6005 36.3474C78.9284 35.5205 78.8465 34.6141 77.942 34.6141C77.0375 34.6141 77.5294 34.6086 76.8708 34.6086C76.2123 34.6086 74.9744 34.6086 74.7285 36.0955C74.4825 37.5823 71.2253 47.4398 70.9794 48.7624C70.7334 50.0849 70.5422 50.7941 69.9628 51.35C69.3589 51.9277 68.8917 51.9825 67.1346 52.0647C66.0607 52.1139 56.0786 52.0099 55.2561 52.092L55.2534 52.0893Z" fill="#404040"/>
<path d="M46.3694 29.6964L50.4 29.7621C50.4492 29.7648 50.4874 29.8059 50.4847 29.8579C50.4656 30.0551 50.4164 31.1093 50.4847 31.4872C50.5749 31.9746 50.9766 32.2429 51.4712 32.0321C51.9658 31.8212 51.922 30.4138 51.9111 29.6142C51.9029 29.0009 51.8264 28.5327 51.0913 28.4368C50.3153 28.3328 46.7821 28.3328 46.7821 28.3328L46.3667 29.6991L46.3694 29.6964Z" fill="#FF3008"/>
<path d="M42.2597 33.7735C42.8882 34.25 43.8009 34.4854 44.4622 34.0063C45.1234 33.5271 45.5989 32.2538 45.4623 32.0348C45.3257 31.8157 43.7735 30.5123 44.76 29.6416C45.5716 28.9269 45.9405 30.6876 46.6236 29.5649C47.3068 28.4422 48.4627 27.8481 49.1103 27.5742C50.6378 26.9308 51.7418 27.1991 51.9412 27.2457C52.3402 27.3415 51.9522 22.8837 48.1648 22.7933C44.3774 22.703 42.5248 24.7922 42.0329 28.5764C41.7542 30.7095 42.1914 33.7215 42.2597 33.7735Z" fill="#404040"/>
<path d="M55.275 50.5752C55.2695 49.9125 54.7285 49.3813 54.0672 49.3868L46.528 49.4552C45.6973 49.4634 45.1207 48.6447 45.3885 47.8561C46.4406 44.7921 46.7357 41.2872 46.4132 39.5895C45.8695 36.7253 42.8664 34.4307 37.8876 35.7752C34.7342 36.6268 30.2336 38.5572 25.345 42.596C23.3475 44.2444 19.899 48.2805 20.3089 48.5872C21.0767 49.165 22.2736 50.3178 22.9322 50.7039C22.9322 50.7039 23.7765 51.3282 25.0581 52.2263C24.8723 54.1567 25.192 56.005 26.7714 57.3084C27.859 58.2065 29.8429 58.5652 33.04 58.5899C41.2733 58.6556 54.1628 58.2804 54.1628 58.2804C54.8241 58.275 55.3542 57.7328 55.3488 57.0702L55.2777 50.5779L55.275 50.5752Z" fill="#A7D87C"/>
<path d="M90.7957 56.0405C90.8176 55.5778 90.6044 55.1013 89.8448 55.1013H43.1832C42.306 55.1013 42.1284 55.7694 42.1284 56.0405L42.6968 96.9109H44.7927L45.2572 61.1746C45.2654 60.6763 45.6698 60.2738 46.1699 60.2738H86.8854C87.3827 60.2738 87.7899 60.6735 87.7981 61.1746L88.2708 96.9136H90.3667L90.7957 56.0433V56.0405Z" fill="#FF8A00"/>
<path d="M102.825 45.3669H79.5923C78.9775 45.3669 78.4583 45.827 78.3818 46.4403L78.1495 48.3352H73.3129C73.0232 48.3352 72.9084 48.7103 73.1462 48.8746L77.7014 51.9934L76.4062 62.5738C76.316 63.3021 76.8844 63.9456 77.6167 63.9456H100.849C101.464 63.9456 101.983 63.4856 102.06 62.8722L104.035 46.7388C104.125 46.0104 103.557 45.3669 102.825 45.3669Z" fill="#D2DEFF"/>
<path d="M86.4567 23.0479H63.4976C62.8882 23.0479 62.3745 23.5024 62.3007 24.1075L60.3469 40.0521C60.2595 40.7722 60.8196 41.4075 61.5438 41.4075H65.2929L68.173 46.0487C68.3424 46.3198 68.7578 46.2322 68.8015 45.9145L69.4054 41.4075H84.5029C85.1123 41.4075 85.626 40.9529 85.6998 40.3478L87.6536 24.4033C87.741 23.6831 87.1809 23.0479 86.4567 23.0479Z" fill="#FFCEB9"/>
<path d="M98.1793 54.9341C97.6629 54.3126 93.0476 48.9293 92.7989 48.6527C92.5502 48.3734 92.4218 48.1078 91.6758 48.0503C90.9298 47.9955 88.4432 47.7135 88.1808 47.6998C87.9185 47.6861 87.6698 47.6423 87.2845 47.9243C86.8992 48.2064 85.4892 49.4605 85.4892 49.4605C85.2105 49.7096 85.0548 49.9698 85.1149 50.6352C85.175 51.3005 85.1449 53.8553 85.1668 54.1565C85.1859 54.4577 85.1121 54.5973 85.5876 55.1614C86.0631 55.7227 90.6921 61.0786 90.9134 61.3415C91.1347 61.6044 91.4791 61.9713 92.0283 61.5222C92.5748 61.0732 97.7312 56.5551 98.1056 56.232C98.4772 55.9062 98.7013 55.5557 98.1848 54.9341H98.1793ZM88.8121 51.0514C88.5279 51.3444 87.842 51.7003 87.4184 51.2293C86.9949 50.7584 87.1097 50.145 87.4239 49.8493C87.9349 49.3646 88.4186 49.4057 88.7437 49.6604C89.0689 49.915 89.2165 50.6379 88.8121 51.0541V51.0514Z" fill="#B71000"/>
<path d="M78.0538 37.1907L77.0536 37.3851C76.7421 37.4207 76.4415 37.585 76.2284 37.8369L75.7338 38.4092C75.3649 38.8473 74.7145 39.0582 74.2609 38.8227L73.5013 38.4476C73.239 38.3106 72.8537 38.3627 72.5503 38.4777L71.6787 38.8063C71.154 39.0034 70.6075 38.809 70.3861 38.349L70.0172 37.5823C69.8888 37.3167 69.6483 37.1305 69.3505 37.0675L68.4952 36.8923C67.9815 36.7882 67.6618 36.3145 67.7437 35.7751L67.8776 34.8797C67.9241 34.5675 67.8394 34.2691 67.6426 34.0527L67.1125 33.3299C66.7709 32.9547 66.8638 32.2757 67.2218 31.8293L67.7027 31.2707C67.9104 31.0133 68.0088 30.6957 67.9733 30.3918L67.8749 29.521C67.8148 28.9953 68.1536 28.4586 68.6755 28.2478L69.5418 27.9C69.8424 27.7795 70.0391 27.5495 70.1785 27.2565L70.5774 26.4132C70.8698 25.8655 71.471 25.5479 71.9902 25.641L72.8127 25.8354C73.1133 25.8874 73.5259 25.8737 73.7937 25.6821L74.5588 25.1043C75.0233 24.773 75.6218 24.7976 75.9743 25.1618L76.4743 25.7341C76.6765 25.9449 76.9717 26.049 77.2832 26.0216L78.3079 26.0353C78.8489 25.9887 79.2998 26.3283 79.3736 26.8513L79.4501 27.7083C79.4911 28.0095 79.5949 28.2943 79.8518 28.4394L80.5186 28.7954C80.964 29.0446 81.158 29.5183 80.9284 30.0331L80.4858 30.8956C80.3546 31.1913 80.4393 31.5363 80.5595 31.8074L80.9093 32.7904C81.117 33.2587 80.7536 33.7652 80.4065 33.9898L79.7124 34.5566C79.4474 34.7537 79.267 35.044 79.2124 35.3534L79.0539 36.2488C78.9583 36.7882 78.5921 37.136 78.051 37.1962L78.0538 37.1907Z" fill="#FF3008"/>
<path d="M73.3046 28.6804C72.9138 28.6502 72.3974 28.9378 72.2717 29.5018C72.146 30.0632 72.7772 30.3014 73.1461 30.3151C73.6735 30.3315 74.1326 29.803 74.149 29.4389C74.1653 29.0719 73.9385 28.7297 73.3046 28.6831V28.6804Z" fill="white"/>
<path d="M75.4333 33.7926C75.0589 33.7652 74.5616 34.0418 74.4414 34.5812C74.3211 35.1207 74.925 35.3507 75.2803 35.3616C75.7858 35.378 76.2257 34.8715 76.2421 34.521C76.2585 34.1705 76.0399 33.8419 75.4306 33.7954L75.4333 33.7926Z" fill="white"/>
<path d="M76.6495 28.4066C76.4992 28.382 76.4063 28.4614 76.2506 28.7024C76.0948 28.9433 71.5369 35.0166 71.444 35.118C71.321 35.2494 71.4112 35.4246 71.5724 35.4411L72.0205 35.4931C72.1162 35.504 72.2118 35.4493 72.3512 35.285C72.4905 35.1207 77.043 29.02 77.1386 28.8913C77.2616 28.727 77.36 28.4943 77.1086 28.4641C76.8572 28.434 76.6522 28.4039 76.6522 28.4039L76.6495 28.4066Z" fill="white"/>
</g>
<defs>
<clipPath id="clip0_220_291">
<rect width="88.0875" height="74.4187" fill="white" transform="translate(15.9561 22.7905)"/>
</clipPath>
</defs>
</svg>
