<svg width="186" height="176" viewBox="0 0 186 176" fill="none" xmlns="http://www.w3.org/2000/svg">
<g clip-path="url(#clip0_2368_6763)">
<g clip-path="url(#clip1_2368_6763)">
<path d="M110.683 136.502C110.683 136.502 115.54 150.508 113.983 156.555C112.426 162.602 116.43 161.465 123.068 158.053C129.705 154.642 129.044 148.775 129.044 148.775L124.57 132.773L110.694 136.502H110.683Z" fill="#FF3008"/>
<path d="M113.202 150.672C114.294 150.558 115.381 153.488 117.643 153.247C119.44 153.056 123.515 153.094 124.286 151.197C126.356 146.102 128.896 146.78 129.858 147.622C130.748 148.781 130.885 149.967 135.506 152.881C142.854 157.517 149.07 155.221 146.847 159.704C129.311 162.345 110.487 164.001 110.487 164.001C110.487 164.001 111.568 155.73 112.524 151.263C112.59 150.951 112.874 150.705 113.191 150.667L113.202 150.672Z" fill="#404040"/>
<path d="M147.257 157.736C147.257 157.736 148.169 160.989 143.455 162.722C138.484 164.548 114.862 166.992 112.994 167.156C110.552 167.369 109.76 165.931 110.732 162.454C110.732 162.454 111.126 163.553 113.486 163.389C115.977 163.219 116.971 163.028 120.074 162.711C125.859 162.12 135.512 161.054 141.586 160.054C146.853 159.185 147.262 157.741 147.262 157.741L147.257 157.736Z" fill="#CDDCFF"/>
<path d="M45.3316 85.7013C36.9517 78.2879 33.4883 71.2955 33.4883 71.2955C33.4883 71.2955 28.2986 69.2399 24.2779 75.5325C20.2573 81.8252 23.4257 84.8649 23.4257 84.8649C23.4257 84.8649 30.1122 88.9871 33.4118 96.0287C36.7113 103.065 53.7171 93.1202 45.3316 85.7013Z" fill="#FF3008"/>
<path d="M36.9518 75.7182C36.0504 76.418 33.3737 75.0184 31.5054 76.4617C30.0195 77.6098 26.3813 79.8951 26.8019 81.6391C27.9382 86.3189 25.2832 87.2921 23.9394 87.2593C22.4699 86.9695 21.6614 86.226 15.8544 86.8383C6.62771 87.8115 2.4432 92.9123 1.79858 88.5659C15.8326 76.8171 31.5764 65.0081 31.5764 65.0081C31.5764 65.0081 35.4441 71.3172 37.1976 74.9364C37.3178 75.1879 37.2086 75.5214 36.9518 75.7237V75.7182Z" fill="#404040"/>
<path d="M2.59065 90.146C2.59065 90.146 -0.118905 88.4239 3.06045 84.5586C6.40916 80.4856 25.9606 65.4183 27.5229 64.2483C29.566 62.7175 31.112 63.2587 32.2756 66.2055C32.2756 66.2055 31.2868 65.6752 29.2874 67.1185C27.1733 68.6439 26.4031 69.3436 23.8301 71.3173C19.0392 75.0021 11.0853 81.2073 6.27805 85.335C2.10992 88.9159 2.59065 90.1406 2.59065 90.1406V90.146Z" fill="#CDDCFF"/>
<path d="M131.409 140.197C131.409 140.197 116.561 81.3055 111.869 67.7361C111.798 67.5283 111.765 62.2854 111.251 62.258C112.513 52.0947 80.7853 66.249 80.7853 66.249L59.3437 91.8133C58.7701 92.3545 57.9398 92.4529 57.4153 92.0429L45.2059 77.555C44.2117 76.7787 43.0208 76.4999 41.8081 77.3746C38.5522 79.72 29.6806 87.1334 26.9383 91.1299C26.2609 92.114 25.6491 93.1964 26.8509 94.2789C31.0026 98.0184 50.0569 117.017 50.0569 117.017C52.8648 119.225 61.0864 120.554 65.7461 116.497C65.7461 116.497 82.4132 95.3669 90.012 83.6071C93.4918 95.7441 105.51 133.03 108.023 143.631C108.367 145.079 109.886 145.763 111.432 145.708C117.233 145.495 127.394 144.385 127.394 144.385C131.54 143.472 131.781 142.51 131.415 140.197H131.409Z" fill="#6C87F8"/>
<path d="M53.4001 113.638C53.4001 113.638 54.886 106.635 55.629 103.666C56.3719 100.692 59.5567 97.3789 62.9983 97.7234C66.4399 98.0733 67.9476 100.648 67.3686 104.125C66.8769 107.099 66.0193 113.07 66.0193 113.07" stroke="#404040" stroke-width="2.32875" stroke-miterlimit="10"/>
<path d="M48.97 111.041C47.2874 111.533 45.7251 112.468 45.1242 116.432C44.5233 120.396 42.6878 130.007 42.2016 132.237C41.7154 134.468 41.3876 137.442 45.37 137.65C49.7785 137.879 62.9002 137.874 65.0307 137.661C67.6583 137.398 69.8653 135.928 70.57 132.707C71.2747 129.487 73.1102 115.809 73.1812 114.797C73.2959 113.212 73.8094 111.26 69.2152 111.167C65.0307 111.08 50.6525 110.549 48.97 111.041Z" fill="#FF3008"/>
<path d="M64.3095 121.489C63.938 120.303 62.8727 119.548 61.5781 119.515L51.7286 119.258C51.5429 119.258 51.3571 119.406 51.3189 119.597C51.3025 119.69 51.3189 119.778 51.3681 119.843L53.0725 122.096C53.2254 122.293 53.4603 122.407 53.728 122.418L60.6712 122.599C61.0919 122.61 61.4087 122.905 61.4196 123.326C61.436 123.818 61.0372 124.299 60.5292 124.403C60.4636 124.419 60.3926 124.425 60.3271 124.419L55.5416 124.294C55.3559 124.294 55.1702 124.441 55.1319 124.632C55.1155 124.725 55.1319 124.813 55.1811 124.878L56.891 127.131C57.0439 127.328 57.2788 127.448 57.5465 127.454L59.7098 127.508C62.5286 127.579 65.2709 124.572 64.304 121.494" fill="white"/>
<path d="M161.881 32.3639C161.881 32.3639 164.257 29.51 165.891 27.6239C167.322 25.9673 168.207 25.7213 168.649 26.0111C169.207 26.3774 168.999 27.3833 168.431 28.269C167.945 29.0289 167.491 29.7506 167.152 30.2973C167 30.5433 167.256 30.7675 167.497 30.598C169.469 29.1929 173.145 26.2243 175.784 26.4211C179.979 26.7382 178.242 31.8609 176.816 34.2008C174.97 37.2296 171.332 41.0238 169.392 42.1719C168.939 42.4398 161.886 32.3529 161.886 32.3529L161.881 32.3639Z" fill="#FF8A00"/>
<path d="M68.3628 95.46C68.3628 95.46 68.8927 98.6911 69.1986 100.878C69.4663 102.797 69.002 103.611 68.4338 103.825C67.7182 104.093 67.0572 103.447 66.7622 102.578C66.5109 101.835 66.2651 101.135 66.0739 100.605C65.9865 100.364 65.6096 100.462 65.5713 100.73C65.2326 102.955 64.8775 107.269 62.7252 109.259C59.3109 112.424 56.4484 108.619 55.6181 106.383C54.5419 103.486 54.0994 100.812 54.9243 95.7662C55.0062 95.2796 68.3628 95.4655 68.3628 95.4655V95.46Z" fill="#FF8A00"/>
<path d="M162.252 31.6262C161.657 30.8662 160.553 30.7295 159.8 31.3309C148.311 40.5048 137.937 44.8784 128.984 44.3481C120.369 43.8342 114.753 38.8045 112.246 35.978C110.143 33.4194 109.35 31.9925 106.936 31.7847C104.685 31.5934 102.358 32.1947 100.025 33.392C95.6934 34.6167 88.6027 37.3338 81.135 43.1891C62.5778 57.7371 56.6015 80.1523 54.613 96.3349L68.1881 95.5477C69.7232 95.4602 70.9796 94.3012 71.2036 92.7813C72.7004 82.7984 75.5903 74.1822 79.742 67.2225C92.0224 68.2777 106.925 69.0158 111.596 67.8185C115.567 66.8016 115.414 62.7723 115.485 61.1322C115.518 60.3504 115.518 59.6123 115.496 58.9071C118.293 59.831 121.401 60.4871 124.838 60.7167C125.761 60.7768 126.695 60.8096 127.629 60.8096C140.969 60.8096 155.134 54.3202 170.234 41.8551L162.252 31.6426V31.6262Z" fill="#D2DEFF"/>
<path d="M108.744 12.1083C110.132 12.6386 111.175 14.3881 112.726 16.974C114.278 19.5599 116.239 21.6539 115.835 23.0589C115.354 24.7209 113.06 24.7537 112.896 25.2184C112.732 25.6831 112.677 27.8754 112.716 29.7944C112.759 32.0086 112.617 33.6706 111.749 34.7913C110.263 36.6994 108.143 37.4374 104.773 37.2679C101.79 37.1149 100.102 36.0761 99.3753 32.5389C98.6488 29.0017 98.9984 26.7875 98.9984 26.7875C98.9984 26.7875 97.5726 27.1975 96.0157 26.1588C94.9177 25.4262 94.0218 23.3432 94.8303 21.9108C95.6388 20.4784 97.3431 19.2264 99.4245 19.8278C99.3589 17.6355 99.714 14.3717 101.948 13.0267C105.122 11.1133 107.362 11.5834 108.75 12.1137L108.744 12.1083Z" fill="#FF8A00"/>
<path d="M105.346 16.5368C105.346 16.5368 104.286 21.9438 101.216 20.8722C100.14 20.5004 99.3807 20.2599 98.8563 20.1123C97.9112 19.8444 96.7968 20.0357 95.8954 20.6973C95.3437 21.1018 94.8466 21.6813 94.7482 22.4795C94.4642 24.6828 95.2344 26.0222 96.906 26.4104C97.9822 26.6564 98.5394 26.7384 98.8016 26.7658C98.9491 26.7822 99.0803 26.8368 99.1731 26.9407C99.5501 27.3234 100.375 28.4332 100.08 30.5107C99.7085 33.1677 96.9115 33.4958 95.3 33.2388C93.9725 33.0256 91.3449 31.9212 91.5088 27.7006C91.547 26.6564 91.8966 25.6942 92.2244 25.0053C92.4539 24.5242 92.2299 24.0267 91.7491 23.9502C90.9625 23.8244 90.0229 23.3761 89.9956 21.9492C89.9519 19.6038 96.2724 15.1481 98.086 17.7341C100.817 16.2361 105.33 14.6342 105.346 16.5422V16.5368Z" fill="#951C39"/>
<path d="M97.9603 17.7231C97.9275 17.8543 105.04 16.5258 107.531 16.1869C110.607 15.7768 116.676 14.7709 117.648 14.6123C119.626 14.2843 120.396 13.9946 120.473 13.2565C120.549 12.5512 119.659 12.2341 118.653 12.3982C117.648 12.5622 116.37 12.6332 115.365 12.7426C114.076 12.8847 113.529 12.3271 113.021 11.7366C112.513 11.1462 111.699 9.41858 109.88 8.98122C108.11 8.56025 105.87 8.92108 103.751 10.2441C101.293 11.7749 98.6377 15.0169 97.9603 17.7177V17.7231Z" fill="#FF3008"/>
<path d="M51.226 42.9539L32.0296 32.9655C31.4233 32.6484 30.6038 32.9054 30.2105 33.5341L22.8576 45.1954C22.4588 45.8242 22.6281 46.595 23.24 46.9121L42.4363 56.9005C43.0427 57.2176 43.8621 56.9607 44.2554 56.332L51.6084 44.6706C52.0071 44.0419 51.8378 43.271 51.226 42.9539Z" fill="#A7D87C"/>
<path d="M47.2436 43.5116C46.9158 44.1458 46.4843 45.4142 47.6424 46.2834C47.8117 46.4146 47.8391 46.6661 47.7079 46.8684L44.3483 52.1715C44.2227 52.3683 43.9932 52.4667 43.7802 52.423C43.2394 52.3027 42.1632 52.2699 41.2454 53.4125C41.0925 53.6039 40.8248 53.6695 40.6281 53.5656L27.7031 46.8411C27.5119 46.7427 27.4409 46.5185 27.5283 46.2998C27.7687 45.7039 28.0145 44.4957 26.6597 43.5499C26.4794 43.4241 26.4521 43.1672 26.5832 42.9594L30.0248 37.5251C30.1668 37.301 30.4454 37.1971 30.664 37.2955C31.2976 37.5907 32.6415 37.9133 33.7668 36.4973C33.9253 36.3005 34.1929 36.2294 34.3951 36.3333L47.0743 42.9321C47.2764 43.036 47.3529 43.2874 47.2327 43.5116H47.2436Z" fill="#00AB42"/>
<path d="M34.6465 48.1258C36.3618 49.0771 39.6941 48.853 41.0871 45.4852C42.3327 42.4838 39.9072 40.8382 38.4759 40.4992C37.0447 40.1603 34.4225 40.625 33.0677 43.0414C32.0189 44.9167 32.7673 47.0871 34.6465 48.1258Z" fill="#A7D87C"/>
<path d="M30.4892 42.697C30.9863 42.9758 31.9587 42.9102 32.3684 41.9262C32.7289 41.0514 32.0242 40.5703 31.609 40.4719C31.1939 40.3735 30.4291 40.5102 30.0303 41.2154C29.7244 41.7621 29.9429 42.3963 30.4892 42.697Z" fill="#A7D87C"/>
<path d="M41.9665 48.8583C42.4636 49.1372 43.436 49.0716 43.8457 48.0875C44.2062 47.2127 43.5015 46.7316 43.0863 46.6332C42.6712 46.5348 41.9064 46.6715 41.5076 47.3768C41.2017 47.9235 41.4202 48.5577 41.9665 48.8583Z" fill="#A7D87C"/>
<path d="M67.1555 11.4851L44.2827 15.3121C43.5562 15.4324 42.988 16.0994 43.0099 16.7992L43.4251 29.7234C43.4469 30.4232 44.0533 30.8934 44.7798 30.7731L67.6527 26.9462C68.3792 26.8259 68.9473 26.1589 68.9255 25.4591L68.5103 12.5348C68.4885 11.835 67.8821 11.3649 67.1555 11.4851Z" fill="#A7D87C"/>
<path d="M63.9708 14.2297C64.0528 14.8913 64.4297 16.0831 65.9648 16.0448C66.1942 16.0448 66.3635 16.2143 66.369 16.4385L66.5438 22.3265C66.5493 22.5452 66.4072 22.753 66.1942 22.8405C65.6424 23.0701 64.6701 23.6715 64.5444 25.0546C64.5226 25.2897 64.3204 25.492 64.091 25.5303L48.6913 28.1053C48.4619 28.1436 48.2652 28.0178 48.2161 27.8101C48.074 27.2305 47.5769 26.1918 45.8233 26.2793C45.5884 26.2902 45.4136 26.1153 45.4082 25.8856L45.2279 19.8554C45.2224 19.6094 45.4082 19.3688 45.6595 19.3142C46.3969 19.1611 47.7736 18.6144 47.9265 16.9086C47.9484 16.6735 48.145 16.4603 48.3854 16.4221L63.4956 13.8908C63.7359 13.8525 63.949 13.9947 63.9817 14.2243L63.9708 14.2297Z" fill="#00AB42"/>
<path d="M55.5745 25.0054C57.6504 24.7047 60.4583 22.5944 59.699 19.2868C59.0216 16.34 55.9023 16.5368 54.4383 17.1218C52.9742 17.7068 50.9311 19.5874 51.166 22.1625C51.3463 24.1634 53.2965 25.3279 55.5745 24.9999V25.0054Z" fill="#A7D87C"/>
<path d="M48.6861 23.4143C49.2924 23.3269 50.1119 22.7091 49.8879 21.7469C49.6912 20.8885 48.7789 20.9432 48.3528 21.1182C47.9267 21.2931 47.3313 21.8343 47.3968 22.5888C47.4515 23.1738 48.0196 23.5128 48.6806 23.4143H48.6861Z" fill="#A7D87C"/>
<path d="M62.4739 21.2711C63.0803 21.1836 63.8997 20.5658 63.6757 19.6036C63.4791 18.7453 62.5668 18.8 62.1407 18.9749C61.7146 19.1499 61.1191 19.6911 61.1847 20.4456C61.2393 21.0305 61.8074 21.3695 62.4684 21.2711H62.4739Z" fill="#A7D87C"/>
<path d="M160.93 75.5542L144.919 93.634C144.411 94.208 144.405 95.0281 144.908 95.4655L154.178 103.562C154.681 104 155.5 103.89 156.003 103.316L172.014 85.2365C172.522 84.6624 172.528 83.8424 172.025 83.405L162.755 75.3082C162.252 74.8708 161.433 74.9802 160.93 75.5542Z" fill="#A7D87C"/>
<path d="M160.226 79.507C160.75 79.8788 161.881 80.3927 163.11 79.3266C163.29 79.1681 163.552 79.1626 163.711 79.3048L167.923 83.0005C168.076 83.1372 168.103 83.3723 167.994 83.5746C167.704 84.0994 167.327 85.1546 168.179 86.1332C168.321 86.2972 168.3 86.5651 168.136 86.751L157.358 98.9262C157.199 99.1066 156.953 99.1613 156.762 99.0574C156.243 98.7786 155.123 98.4451 153.752 99.6971C153.572 99.8666 153.304 99.872 153.14 99.7244L148.825 95.9357C148.65 95.7826 148.634 95.4984 148.803 95.2906C149.295 94.6892 150.048 93.3935 148.994 92.1853C148.847 92.0158 148.863 91.7479 149.032 91.5566L159.608 79.6109C159.778 79.4196 160.051 79.3649 160.237 79.4961L160.226 79.507Z" fill="#00AB42"/>
<path d="M160.827 92.2179C162.312 90.6105 163.143 87.3193 160.237 85.6956C157.647 84.2468 155.238 86.5047 154.451 87.8824C153.659 89.2602 153.293 91.8734 155.265 93.3824C156.795 94.5523 159.193 93.9837 160.821 92.2179H160.827Z" fill="#A7D87C"/>
<path d="M154.113 95.8864C154.544 95.4163 154.79 94.4595 153.943 93.9839C153.189 93.5629 152.485 94.219 152.255 94.6181C152.026 95.0172 151.917 95.7826 152.496 96.2199C152.944 96.5589 153.643 96.3949 154.118 95.881L154.113 95.8864Z" fill="#A7D87C"/>
<path d="M163.875 85.0889C164.306 84.6187 164.552 83.662 163.706 83.1863C162.952 82.7654 162.247 83.4214 162.018 83.8205C161.788 84.2196 161.679 84.985 162.258 85.4224C162.706 85.7613 163.405 85.5973 163.88 85.0834L163.875 85.0889Z" fill="#A7D87C"/>
<path d="M150.611 58.5896L130.033 51.1762C129.383 50.9411 128.59 51.291 128.268 51.958L122.314 64.259C121.991 64.926 122.259 65.6531 122.909 65.8882L143.488 73.3016C144.138 73.5367 144.93 73.1868 145.252 72.5198L151.206 60.2188C151.529 59.5518 151.261 58.8247 150.611 58.5896Z" fill="#A7D87C"/>
<path d="M146.667 59.6231C146.415 60.2846 146.142 61.5803 147.415 62.2856C147.606 62.3895 147.661 62.6355 147.557 62.8487L144.831 68.447C144.733 68.6548 144.509 68.7805 144.29 68.7586C143.728 68.7094 142.641 68.8078 141.859 70.0379C141.728 70.2457 141.466 70.3386 141.253 70.2621L127.399 65.2706C127.197 65.1996 127.093 64.9863 127.154 64.7622C127.317 64.1499 127.421 62.9416 125.941 62.1817C125.744 62.0778 125.684 61.8318 125.793 61.6131L128.585 55.8781C128.699 55.643 128.967 55.5064 129.202 55.5774C129.879 55.7852 131.272 55.9437 132.228 54.4184C132.36 54.2052 132.627 54.1068 132.84 54.1833L146.437 59.0818C146.656 59.1584 146.76 59.3935 146.672 59.6286L146.667 59.6231Z" fill="#00AB42"/>
<path d="M134.545 65.6805C136.391 66.3967 139.718 65.768 140.707 62.3127C141.586 59.2293 138.937 57.9172 137.457 57.7586C135.976 57.6001 133.387 58.3764 132.322 60.9077C131.497 62.8649 132.524 64.8987 134.545 65.686V65.6805Z" fill="#A7D87C"/>
<path d="M129.683 60.8805C130.218 61.0883 131.191 60.9078 131.48 59.8964C131.737 58.9943 130.967 58.6116 130.535 58.5679C130.104 58.5242 129.35 58.7483 129.038 59.4864C128.798 60.0604 129.099 60.6509 129.689 60.8805H129.683Z" fill="#A7D87C"/>
<path d="M142.012 65.5003C142.548 65.708 143.52 65.5276 143.81 64.5162C144.066 63.6141 143.296 63.2314 142.865 63.1877C142.433 63.1439 141.679 63.3681 141.368 64.1061C141.127 64.6802 141.428 65.2706 142.018 65.5003H142.012Z" fill="#A7D87C"/>
<path d="M184.71 19.1061L163.771 12.4964C163.11 12.2887 162.329 12.6659 162.028 13.3383L156.511 25.7924C156.21 26.4649 156.511 27.1811 157.172 27.3943L178.111 34.004C178.772 34.2118 179.553 33.8346 179.853 33.1621L185.371 20.708C185.671 20.0356 185.371 19.3194 184.71 19.1061Z" fill="#A7D87C"/>
<path d="M180.788 20.2872C180.558 20.9542 180.334 22.2499 181.634 22.906C181.826 23.0044 181.891 23.2449 181.793 23.4582L179.269 29.1275C179.176 29.3353 178.958 29.472 178.739 29.461C178.171 29.4337 177.084 29.5704 176.352 30.8224C176.226 31.0356 175.969 31.1394 175.751 31.0684L161.651 26.6181C161.444 26.5525 161.335 26.3448 161.384 26.1206C161.526 25.5029 161.586 24.3001 160.067 23.5948C159.865 23.5019 159.799 23.2559 159.898 23.0317L162.482 17.2256C162.586 16.9906 162.853 16.8429 163.088 16.9031C163.776 17.089 165.18 17.1874 166.082 15.6402C166.207 15.427 166.47 15.3121 166.688 15.3832L180.52 19.7514C180.738 19.8225 180.853 20.0521 180.777 20.2872H180.788Z" fill="#00AB42"/>
<path d="M168.846 26.7549C170.725 27.4 174.041 26.651 174.904 23.174C175.674 20.0741 172.965 18.8659 171.474 18.762C169.982 18.6581 167.409 19.5274 166.437 22.086C165.683 24.0651 166.786 26.0442 168.846 26.7549Z" fill="#A7D87C"/>
<path d="M163.787 22.1623C164.333 22.3482 165.3 22.135 165.552 21.1181C165.776 20.216 164.984 19.8607 164.552 19.8333C164.12 19.806 163.367 20.0575 163.082 20.801C162.864 21.3805 163.186 21.9546 163.787 22.1623Z" fill="#A7D87C"/>
<path d="M176.335 26.3011C176.882 26.487 177.848 26.2738 178.1 25.2569C178.324 24.3548 177.532 23.9995 177.1 23.9721C176.669 23.9448 175.915 24.1963 175.631 24.9398C175.412 25.5193 175.734 26.0934 176.335 26.3011Z" fill="#A7D87C"/>
<path d="M162.755 31.4018C162.755 31.4018 164.257 29.5157 165.891 27.6295C167.322 25.973 168.338 24.8577 169.217 25.5137C170.059 26.1479 169.31 27.9193 168.764 28.9143C168.332 29.707 168.36 31.3143 168.797 31.3799L162.76 31.4018H162.755Z" fill="#FF8A00"/>
</g>
</g>
<defs>
<clipPath id="clip0_2368_6763">
<rect width="184.98" height="176" fill="white" transform="translate(0.926758)"/>
</clipPath>
<clipPath id="clip1_2368_6763">
<rect width="183.971" height="158.355" fill="white" transform="translate(1.5144 8.82257)"/>
</clipPath>
</defs>
</svg>
