<svg width="120" height="120" viewBox="0 0 120 120" fill="none" xmlns="http://www.w3.org/2000/svg">
<g clip-path="url(#clip0_220_340)">
<path d="M57.901 31.7755C56.5402 31.2622 54.013 30.8521 50.9938 32.9389C50.69 33.1485 50.2769 32.9085 50.3134 32.541L50.8844 26.5996H48.4787L47.5735 32.3344C47.5219 32.6655 47.1301 32.8143 46.8688 32.6017C46.0761 31.9578 45.0433 31.4414 43.886 31.1467C40.6845 30.3357 37.4131 31.3533 35.1289 33.8683L36.028 34.6854C38.8741 31.5447 42.261 31.9881 43.5853 32.3253C44.2566 32.4954 44.8823 32.7536 45.4169 33.0664C46.556 33.7347 47.1392 35.056 46.9326 36.3591L44.7456 50.2162H48.6063L49.8881 36.918C49.9975 35.7789 50.5776 34.731 51.5071 34.0627C54.1619 32.1522 56.3246 32.4802 57.4697 32.9115C59.0128 33.4917 59.924 34.6672 59.9665 35.2595L61.1785 35.1745C61.1026 34.084 59.8542 32.5136 57.898 31.7755H57.901Z" fill="#404040"/>
<path d="M42.7832 36.0461C41.3555 35.5965 40.0069 36.6262 39.5452 36.766C39.0835 36.9057 38.7767 36.6597 38.8526 36.362C38.9286 36.0643 39.6758 35.3961 39.8702 34.2752C40.0646 33.1544 38.8921 32.1945 37.6468 32.0609C35.9852 31.8847 35.1074 32.5378 34.5607 33.1969C33.8742 34.0261 33.9349 34.983 34.1688 35.9489C34.263 36.3377 34.4513 36.7386 34.6457 37.1183C34.8097 37.4342 34.4878 37.7653 34.1536 37.5922C34.0261 37.5253 33.8438 37.2945 33.8408 37.2915C33.5613 36.9938 32.8931 36.0066 31.3652 36.3802C30.4843 36.5959 29.3726 37.2732 29.1904 38.4518C28.999 39.7002 29.7644 40.7178 30.9886 40.8757C32.2127 41.0337 39.6545 41.1278 40.9516 40.9182C42.607 40.6509 43.9617 39.36 44.2321 38.1571C44.4872 37.0242 43.5972 36.3073 42.7771 36.0491L42.7832 36.0461Z" fill="#A7D87C"/>
<path d="M54.4413 36.195C55.9965 35.7455 57.0505 36.7752 57.4727 36.9149C57.8949 37.0546 58.2715 36.8086 58.2806 36.5109C58.2898 36.2132 57.7339 35.545 57.8615 34.4241C57.9891 33.3033 59.4349 32.3435 60.7198 32.2098C62.4329 32.0336 63.1224 32.6867 63.4809 33.3458C63.9304 34.1751 63.5932 35.1319 63.0829 36.0978C62.8794 36.4866 62.5757 36.8876 62.2689 37.2672C62.0168 37.5831 62.2416 37.9142 62.6243 37.7411C62.7731 37.6743 63.0191 37.4434 63.0222 37.4404C63.3867 37.1427 64.3374 36.1555 65.759 36.5291C66.5761 36.7448 67.4964 37.4222 67.3385 38.6007C67.1714 39.8491 66.1144 40.8667 64.8447 41.0246C63.575 41.1826 56.1058 41.2767 54.8695 41.0672C53.29 40.7999 52.3059 39.5089 52.3788 38.3061C52.4487 37.1731 53.5422 36.4562 54.4382 36.198L54.4413 36.195Z" fill="#A7D87C"/>
<path d="M28.7741 39.8945C28.4764 39.8945 28.2517 40.1618 28.3033 40.4565C28.5797 42.0299 29.8069 46.3796 34.9099 46.3796C41.6744 46.3796 43.6184 41.8719 44.077 40.3745C44.1499 40.1375 43.9707 39.8976 43.7217 39.8976H28.7741V39.8945Z" fill="#FFD0BC"/>
<path d="M52.3302 39.8945C52.0538 39.8945 51.8442 40.1466 51.8989 40.417C52.2026 41.957 53.5209 46.3766 58.6664 46.3766C65.3945 46.3766 67.3537 41.9175 67.8275 40.3957C67.9065 40.1466 67.7151 39.8945 67.4539 39.8945H52.3332H52.3302Z" fill="#FFD0BC"/>
<path d="M107.503 48.922H17.2649C16.3233 48.922 15.5244 49.5568 15.3938 50.4104L14.9108 53.5663L10.8527 79.9865L10.6249 81.4658C10.4639 82.5046 11.3479 83.431 12.493 83.431H102.713C103.654 83.431 104.45 82.7962 104.581 81.9457L104.751 80.8461H104.757L108.949 53.5602H108.961L109.371 50.8842C109.529 49.8454 108.648 48.9189 107.5 48.9189L107.503 48.922ZM40.4228 53.5633H42.8923C44.0405 53.5633 44.9213 54.4897 44.7604 55.5285L41.3584 77.6719C41.2277 78.5255 40.4289 79.1573 39.4903 79.1573H37.0208C35.8726 79.1573 34.9918 78.2308 35.1527 77.192L38.5547 55.0486C38.6854 54.1951 39.4842 53.5633 40.4228 53.5633ZM29.4392 79.1603H26.9697C25.8215 79.1603 24.9407 78.2339 25.1017 77.195L28.5037 55.0517C28.6343 54.1981 29.4331 53.5663 30.3717 53.5663H32.8412C33.9894 53.5663 34.8703 54.4928 34.7093 55.5316L31.3073 77.675C31.1767 78.5285 30.3778 79.1603 29.4392 79.1603ZM50.4739 53.5633H52.9434C54.0916 53.5633 54.9724 54.4897 54.8114 55.5285L51.4094 77.6719C51.2788 78.5255 50.48 79.1573 49.5414 79.1573H47.0719C45.9237 79.1573 45.0428 78.2308 45.2038 77.192L48.6058 55.0486C48.7364 54.1951 49.5353 53.5633 50.4739 53.5633ZM60.525 53.5633H62.9945C64.1426 53.5633 65.0235 54.4897 64.8625 55.5285L61.4605 77.6719C61.3299 78.5255 60.5311 79.1573 59.5925 79.1573H57.123C55.9748 79.1573 55.0939 78.2308 55.2549 77.192L58.6569 55.0486C58.7875 54.1951 59.5864 53.5633 60.525 53.5633ZM70.5761 53.5633H73.0456C74.1937 53.5633 75.0746 54.4897 74.9136 55.5285L71.5116 77.6719C71.381 78.5255 70.5821 79.1573 69.6436 79.1573H67.1741C66.0259 79.1573 65.145 78.2308 65.306 77.192L68.708 55.0486C68.8386 54.1951 69.6375 53.5633 70.5761 53.5633ZM80.6272 53.5633H83.0966C84.2448 53.5633 85.1257 54.4897 84.9647 55.5285L81.5627 77.6719C81.4321 78.5255 80.6332 79.1573 79.6946 79.1573H77.2252C76.077 79.1573 75.1961 78.2308 75.3571 77.192L78.7591 55.0486C78.8897 54.1951 79.6886 53.5633 80.6272 53.5633ZM90.6782 53.5633H93.1477C94.2959 53.5633 95.1768 54.4897 95.0158 55.5285L91.6138 77.6719C91.4832 78.5255 90.6843 79.1573 89.7457 79.1573H87.2762C86.1281 79.1573 85.2472 78.2308 85.4082 77.192L88.8102 55.0486C88.9408 54.1951 89.7397 53.5633 90.6782 53.5633ZM24.6643 55.5285L21.2623 77.6719C21.1316 78.5255 20.3328 79.1573 19.3942 79.1573H16.9247C15.7765 79.1573 14.8957 78.2308 15.0566 77.192L18.4586 55.0486C18.5893 54.1951 19.3881 53.5633 20.3267 53.5633H22.7962C23.9444 53.5633 24.8252 54.4897 24.6643 55.5285ZM99.6115 79.1573H97.3243C96.1761 79.1573 95.2952 78.2308 95.4562 77.192L98.8582 55.0486C98.9889 54.1951 99.7877 53.5633 100.726 53.5633H103.014C104.162 53.5633 105.043 54.4897 104.882 55.5285L101.48 77.6719C101.349 78.5255 100.55 79.1573 99.6115 79.1573Z" fill="#D2DEFF"/>
<path d="M51.2517 28.1607H47.7768C47.2483 28.1607 46.814 27.8478 46.8352 27.4833L47.2757 20.5457H53.6483L52.1022 27.6564C52.0385 27.9511 51.68 28.1607 51.2487 28.1607H51.2517Z" fill="#FF8A00"/>
<path d="M54.0402 20.3483H53.4236C53.3112 20.3483 53.211 20.2845 53.1654 20.1813C52.8373 19.4188 52.2876 17.9912 50.5045 18.134C48.7549 18.2737 47.8407 19.5252 47.4701 20.2056C47.4215 20.2967 47.3273 20.3514 47.224 20.3514H46.6287C46.5285 20.3514 46.4434 20.4243 46.4282 20.5245L46.2581 21.7243C46.2399 21.8458 46.3341 21.9552 46.4586 21.9552H53.8701C53.9703 21.9552 54.0554 21.8823 54.0706 21.782L54.2407 20.5822C54.2589 20.4607 54.1647 20.3514 54.0402 20.3514V20.3483Z" fill="#404040"/>
<path d="M36.8297 98.4425C35.0528 98.4425 30.372 98.4759 29.5701 98.5913C28.5252 98.7402 27.7415 99.1867 27.9511 99.9339C28.1607 100.681 28.7894 101.052 31.0858 101.176C33.8529 101.325 41.7413 101.823 46.2338 101.872C49.8393 101.911 71.6182 101.772 75.3786 101.823C79.139 101.872 87.9144 101.574 89.0625 101.574C90.2107 101.574 91.8844 101.225 91.7781 100.38C91.6748 99.536 90.2624 98.5427 87.8081 98.3939C85.9704 98.2815 80.9646 98.4941 78.3553 98.4941C76.8336 98.4941 64.5135 98.5943 62.0592 98.6429C59.9147 98.6855 37.3005 98.4455 36.8327 98.4455L36.8297 98.4425Z" fill="#D2DEFF"/>
<path d="M39.4481 59.1068C41.222 57.2965 43.6004 56.2455 45.9423 56.2485L71.4087 56.2728C72.5751 56.2789 74.0635 56.6616 75.2633 58.0862C76.4631 59.5108 84.8709 72.001 84.8709 72.001C87.064 73.1553 90.8791 75.3392 92.1457 76.7183C93.7981 78.5165 94.6395 80.9465 94.1413 83.5891L93.0023 89.6276C92.5801 92.0181 90.5358 94.0411 88.1028 94.1231L84.7889 94.1839C83.5526 94.2659 83.2215 93.3577 83.0939 92.5922C82.8388 91.0522 83.6589 86.2196 79.4398 84.0022C76.5572 82.4865 72.0223 82.6232 68.8055 85.1352C65.2213 87.9357 64.7323 91.2162 64.1551 92.2733C63.9061 92.7289 63.3016 93.947 61.7616 93.947L52.6096 93.9135C51.6285 93.9227 50.7598 93.2787 50.456 92.3401C50.0824 91.1889 50.942 86.5385 47.4793 84.3515C44.5784 82.5199 40.3351 82.8813 37.3583 84.8253C33.0359 87.6502 32.8901 91.1737 32.1976 92.7441C31.8088 93.628 31.3106 94.114 30.53 94.1292C29.4973 94.1474 29.0052 94.1353 28.0757 94.1322C26.56 94.1262 26.071 93.9227 25.5637 92.0242C25.1597 90.5176 25.0898 88.8926 25.3025 87.2553C27.0916 73.4621 34.9891 63.654 39.4481 59.1008V59.1068Z" fill="#FF8A00"/>
<path d="M81.7119 72.1436L85.0774 72.1375C85.0167 72.0373 83.7014 70.3059 83.6437 70.2026C83.6437 70.2026 78.1853 61.8252 75.6976 58.6419C75.5275 58.6237 75.1205 58.6085 74.9322 58.5964C74.7924 58.5872 74.6983 58.733 74.759 58.8545L81.7119 72.1375V72.1436Z" fill="#FCEAC8"/>
<path d="M72.4596 58.8546C72.3685 58.6754 72.1862 58.563 71.9827 58.563H62.0835C61.5246 58.563 60.9839 58.97 60.8108 59.5228L56.8286 72.1862L79.1907 72.1497L72.4596 58.8546Z" fill="#FCEAC8"/>
<path d="M43.3758 85.0653C45.4018 85.1139 48.8979 86.7055 48.8858 91.3711C48.8736 95.1984 46.2705 101.055 40.1864 100.83C33.8805 100.596 33.6254 94.4481 34.2602 92.0485C34.9194 89.5578 37.2187 84.9165 43.3788 85.0683L43.3758 85.0653Z" fill="#404040"/>
<path d="M42.0999 89.7187C43.2663 89.7855 45.3044 90.6208 44.2686 93.6978C43.3361 96.465 41.0124 96.222 40.1376 95.8362C39.117 95.3867 38.6371 93.8588 39.1018 92.2702C39.5635 90.6937 40.7846 89.6428 42.0999 89.7187Z" fill="#FDBC43"/>
<path d="M75.5701 85.0653C77.5961 85.1139 81.0923 86.7055 81.0801 91.3711C81.068 95.1984 78.4648 101.055 72.3807 100.83C66.0749 100.596 65.8197 94.4481 66.4546 92.0485C67.1137 89.5578 69.4131 84.9165 75.5731 85.0683L75.5701 85.0653Z" fill="#404040"/>
<path d="M74.2971 89.7187C75.4635 89.7856 77.5017 90.6209 76.4659 93.6979C75.5334 96.465 73.2097 96.222 72.3349 95.8363C71.3143 95.3867 70.8344 93.8589 71.2991 92.2702C71.7638 90.6816 72.9819 89.6428 74.2971 89.7187Z" fill="#FDBC43"/>
<path d="M37.7989 69.905L43.1814 59.6899C43.5125 59.0611 44.1777 58.6389 44.849 58.6359L57.2025 58.6116C57.9193 58.6116 58.3567 59.2646 58.1046 59.9693L53.9341 72.1831C53.9341 72.1831 41.3012 72.1345 38.9258 72.0738C37.8263 72.0464 37.2552 70.9408 37.802 69.905H37.7989Z" fill="#FCEAC8"/>
<path d="M66.1203 65.6252C65.0723 65.7224 64.2887 65.8348 62.7912 66.9131C62.129 67.393 60.0301 69.2095 59.377 71.0806C58.6328 73.2159 59.3011 74.9534 61.0051 76.3202C62.937 77.8724 65.6282 78.4131 67.4386 78.0516C68.8601 77.7661 69.7471 77.356 71.521 75.9861C72.8909 74.926 73.5865 74.3854 73.5622 74.3337C73.3526 73.9176 71.1565 71.196 71.1565 71.196L72.1983 70.3698C72.1983 70.3698 71.0471 68.7903 69.7471 67.4447C68.7842 66.4484 67.6087 65.4824 66.1203 65.6222V65.6252Z" fill="#6C87F8"/>
<path d="M73.5897 74.3641C73.5897 74.3641 75.3059 73.465 75.6126 72.2834C76.3963 72.2925 77.2468 72.2622 77.2468 72.2622C77.2468 72.2622 76.9066 70.3121 75.3453 69.5102C74.3855 69.0181 73.6292 69.2247 73.0217 69.5497C72.4142 69.8747 70.9258 71.1201 70.9258 71.1201L73.5897 74.3611V74.3641Z" fill="#BB6500"/>
<path d="M69.7379 57.7277C70.1419 58.1833 70.2239 58.6268 70.1085 59.535C70.069 59.8539 69.9201 60.2974 70.2026 60.5009C70.7008 60.8624 71.4601 61.154 71.2536 61.8131C71.1473 62.1472 70.6856 62.2748 69.9262 62.4662C69.586 62.5512 69.34 62.5877 69.1 62.9643C68.9664 63.1769 68.8145 63.6174 68.21 64.3676C67.1378 65.6981 65.1816 66.1932 64.0912 65.4399C62.6575 64.4527 63.4017 62.3993 63.6143 61.3271C63.8269 60.2549 65.215 58.4263 66.2934 57.8036C67.5782 57.0625 68.9907 56.8832 69.7379 57.7246V57.7277Z" fill="#BB6500"/>
<path d="M27.8117 83.1515C29.0813 82.9905 31.0557 82.1886 31.3564 80.2841C31.648 78.4464 30.9008 77.195 29.3608 76.8305C28.8323 76.7059 28.3402 76.6664 28.0243 76.6543C27.2285 78.7046 26.542 80.8946 26.0195 83.2153C26.2352 83.2274 26.9703 83.2578 27.8086 83.1515H27.8117Z" fill="#951C39"/>
<path d="M91.3896 79.6343C90.2687 79.8985 89.0628 80.4817 88.9231 81.9367C88.7864 83.3917 89.5063 84.1784 91.0645 84.4396C92.3828 84.6613 93.6798 84.5854 93.9562 84.5641L94.1415 83.5891C94.421 82.1129 94.2813 80.7004 93.8135 79.4277C93.0663 79.4277 92.0912 79.4672 91.3896 79.6343Z" fill="#FDBC43"/>
<path d="M51.4248 63.174L50.4103 62.7579C50.4103 62.7579 50.8659 61.6401 51.1636 60.501C51.3367 59.8327 51.3246 59.2981 51.1241 58.9914C51.0026 58.8061 50.8052 58.6937 50.5227 58.6481C49.4839 58.4841 48.6364 59.1068 48.0076 60.501C47.7069 61.1692 47.0387 62.7913 47.0326 62.8095L46.0181 62.3934C46.0454 62.3265 46.6985 60.7379 47.0083 60.0514C47.8406 58.2046 49.1497 57.3207 50.6928 57.5668C51.2821 57.6609 51.7468 57.9465 52.0384 58.393C52.4211 58.9762 52.4819 59.7811 52.2206 60.7804C51.9047 61.9894 51.443 63.1254 51.4218 63.174H51.4248Z" fill="#404040"/>
<path d="M46.0697 61.5095C44.8912 61.5156 44.6633 61.7434 43.8463 63.3594C42.8986 65.2365 40.1952 71.2508 39.855 72.1074C41.3221 72.1074 49.1133 72.1499 50.1794 72.1651C50.7687 70.8104 53.6756 63.326 53.8305 62.922C54.1039 62.2142 54.2892 61.5308 53.0225 61.5338C51.2608 61.5369 47.874 61.5035 46.0697 61.5095Z" fill="#FF3008"/>
<path d="M49.6904 66.3998C49.4505 65.9503 48.9766 65.6769 48.4694 65.683L44.6208 65.7103C44.5479 65.7103 44.4902 65.771 44.4902 65.8439C44.4902 65.8774 44.5054 65.9108 44.5297 65.9381L45.3741 66.7765C45.4501 66.8494 45.5503 66.8919 45.6536 66.8919L48.3691 66.8706C48.5331 66.8706 48.682 66.98 48.7184 67.1379C48.764 67.3262 48.6486 67.5146 48.4602 67.5601C48.4359 67.5662 48.4086 67.5692 48.3843 67.5692L46.5132 67.5844C46.4403 67.5844 46.3826 67.6452 46.3826 67.7181C46.3826 67.7515 46.3978 67.7849 46.4221 67.8122L47.2665 68.6506C47.3424 68.7235 47.4427 68.766 47.546 68.766L48.3904 68.76C49.49 68.7508 50.3162 67.5692 49.6904 66.4059" fill="white"/>
<path d="M57.1509 56.5431C56.592 57.7946 55.4833 60.7319 54.8575 62.6546C54.5963 63.4565 55.2463 63.8605 55.7658 63.657C56.756 63.2651 58.7881 61.6097 59.8451 62.7336C60.7473 63.6934 61.5066 64.5561 63.2471 64.2675C65.6559 63.8696 68.5081 59.8753 69.3768 58.4355C69.5924 58.0801 69.7565 57.3329 69.635 56.9562C69.3859 56.1726 68.101 55.0912 65.908 55.7898C63.6845 56.4976 62.834 57.7308 61.0024 57.4878C59.4533 57.2813 59.4077 55.7048 58.135 55.7048C57.8768 55.7048 57.4364 55.8962 57.1448 56.5431H57.1509Z" fill="#404040"/>
</g>
<defs>
<clipPath id="clip0_220_340">
<rect width="98.7856" height="83.756" fill="white" transform="translate(10.6069 18.1218)"/>
</clipPath>
</defs>
</svg>
