<svg width="320" height="320" viewBox="0 0 320 320" fill="none" xmlns="http://www.w3.org/2000/svg">
<g clip-path="url(#clip0_2_5038)">
<path d="M214.273 46.2303C213.301 46.2361 212.318 45.9801 211.434 45.4275L202.475 39.8835C199.968 38.3303 199.188 35.0377 200.742 32.5304C202.295 30.0232 205.588 29.2436 208.095 30.7969L217.054 36.3408C219.561 37.894 220.34 41.1866 218.787 43.6939C217.781 45.3169 216.047 46.2128 214.273 46.2244V46.2303Z" fill="#9C75CE"/>
<path d="M270.399 88.4992C268.403 88.5108 266.483 87.3997 265.553 85.4858L260.055 74.1594C258.764 71.5067 259.875 68.3072 262.528 67.0157C265.18 65.7243 268.38 66.8354 269.671 69.4881L275.169 80.8145C276.46 83.4672 275.349 86.6667 272.696 87.9582C271.958 88.3188 271.172 88.4934 270.399 88.4934V88.4992Z" fill="#FF8100"/>
<path d="M133.016 111.443L45.9191 278.679C42.132 285.951 50.8115 293.322 57.3734 288.406L220.079 166.515L133.016 111.443Z" fill="#FFB809"/>
<path d="M139.078 58.8423C114.552 80.4072 105.43 121.92 150.166 149.197C194.901 176.475 240.148 182.554 262.545 148.505C284.942 114.456 269.753 57.3298 229.41 44.8633C189.02 32.3793 165.774 35.3635 139.072 58.8423H139.078Z" fill="#CEDDFF"/>
<path d="M197.286 72.449C194.965 72.4606 192.819 70.9539 192.132 68.6154L188.63 56.7538C187.792 53.9208 189.41 50.9539 192.243 50.1162C195.07 49.2785 198.042 50.8958 198.88 53.7288L202.382 65.5904C203.22 68.4234 201.603 71.3902 198.77 72.2279C198.275 72.3734 197.775 72.4432 197.286 72.449Z" fill="#6587FF"/>
<path d="M231.358 86.4108C230.09 86.4166 228.81 85.9745 227.786 85.067C225.576 83.1124 225.372 79.7325 227.327 77.5219L237.641 65.8756C239.596 63.665 242.976 63.4614 245.186 65.416C247.397 67.3707 247.6 70.7505 245.646 72.9611L235.332 84.6074C234.284 85.7883 232.83 86.3992 231.364 86.4108H231.358Z" fill="#FF0000"/>
<path d="M246.838 105.108C243.941 105.125 241.544 102.822 241.469 99.9129C241.387 96.9635 243.714 94.5027 246.664 94.4213L261.137 94.0199C264.081 93.9385 266.547 96.2654 266.629 99.2148C266.71 102.164 264.383 104.625 261.434 104.706L246.96 105.108C246.92 105.108 246.885 105.108 246.844 105.108H246.838Z" fill="white"/>
<path d="M192.429 98.947C189.532 98.9645 187.135 96.6608 187.059 93.7522C186.978 90.8028 189.305 88.342 192.254 88.2606L206.728 87.8592C209.666 87.7894 212.138 90.1047 212.219 93.0541C212.301 96.0035 209.974 98.4642 207.024 98.5457L192.551 98.947C192.51 98.947 192.475 98.947 192.435 98.947H192.429Z" fill="#9C75CE"/>
<path d="M163.08 80.7563C161.265 80.768 159.485 79.8488 158.473 78.1851L152.004 67.5219C150.474 64.9972 151.277 61.7104 153.802 60.1804C156.326 58.6505 159.613 59.4533 161.143 61.978L167.612 72.6412C169.142 75.1659 168.339 78.4527 165.814 79.9826C164.959 80.5004 164.017 80.7505 163.08 80.7563Z" fill="#FF0000"/>
<path d="M164.546 48.8131C162.248 48.8248 160.119 47.3472 159.41 45.0377C158.543 42.2163 160.125 39.2262 162.946 38.3594L176.96 34.0429C179.776 33.1761 182.772 34.7585 183.639 37.5799C184.505 40.4013 182.923 43.3914 180.102 44.2582L166.088 48.5746C165.576 48.7317 165.058 48.8073 164.546 48.8131Z" fill="#FFB809"/>
<path d="M224.965 56.434C222.435 56.4514 220.177 54.6597 219.689 52.0884C219.136 49.1914 221.038 46.3932 223.935 45.8406L239.194 42.9319C242.097 42.3793 244.889 44.2816 245.442 47.1786C245.995 50.0756 244.092 52.8738 241.195 53.4264L225.937 56.3351C225.611 56.3991 225.285 56.4281 224.965 56.4281V56.434Z" fill="#00AD2E"/>
</g>
<defs>
<clipPath id="clip0_2_5038">
<rect width="230.71" height="260" fill="white" transform="translate(45 30)"/>
</clipPath>
</defs>
</svg>
