<svg width="185" height="150" viewBox="0 0 185 150" fill="none" xmlns="http://www.w3.org/2000/svg">
<g clip-path="url(#clip0_1251_86853)">
<path d="M174.571 102.604C134.94 57.0843 212.276 5.33811 130.329 18.3099C83.3819 25.7415 90.3855 -8.84044 54.1214 2.19194C26.2865 19.9122 64.0054 47.9472 21.1872 58.8834C-23.9438 70.4107 12.3125 144.806 44.021 150.388C79.6401 149.134 134.39 150.467 134.39 150.467C134.39 150.467 210.405 143.765 174.571 102.604Z" fill="#FFF0ED"/>
<path d="M83.2734 48.8634C85.62 51.3848 86.934 55.3227 85.1472 59.5133C83.3604 63.7032 84.2333 70.3086 89.8489 75.348C92.5145 77.7401 94.8026 81.6014 94.1681 86.5792C93.0275 95.5358 76.8395 98.7872 71.5383 99.8225C62.1699 101.652 57.8735 93.8243 55.7041 88.1815C53.5348 82.5393 56.099 70.7171 60.5358 66.9247C64.9718 63.1316 72.5333 50.6684 72.7307 46.6987C72.9282 42.7289 73.6517 36.3911 73.6517 36.3911L78.1852 37.3348C78.1852 37.3348 77.3714 42.5224 83.2734 48.8634Z" fill="#24372B"/>
<path d="M109.653 122.754C109.885 123.923 100.001 132.868 98.4045 131.24C88.1294 120.767 81.2195 110.801 74.3428 98.9688C77.0878 94.2241 86.7062 83.8875 88.7486 90.442C90.9499 97.5021 109.42 121.586 109.653 122.754Z" fill="#846854"/>
<path d="M79.0187 110.175C79.0187 110.175 97.9327 105.698 97.9327 104.386C97.9327 101.363 86.977 81.5813 85.4461 79.5529C83.9159 77.5245 76.1602 72.6955 70.7188 74.581C70.7928 79.2333 72.021 86.168 72.021 86.168L79.0187 110.175Z" fill="#FA7463"/>
<path d="M71.2011 75.3033C65.1529 72.2792 64.4697 58.48 64.4248 58.0364C64.3807 57.5921 50.6353 57.4401 47.0371 52.8696C50.1891 61.8197 54.6122 63.0102 53.9406 68.2802C53.5665 71.2179 56.7517 82.4776 66.1096 79.1639C69.3071 78.0318 73.7107 76.5581 71.2011 75.3033Z" fill="#765C4C"/>
<path d="M49.6008 44.9007C49.2482 46.212 49.1994 55.7252 52.6574 61.6779C54.059 64.0901 62.9331 69.6986 66.3429 69.9545C69.0981 70.161 70.4763 68.2275 72.3527 65.6334C74.6955 62.3963 75.8535 58.3427 75.8009 56.0448C75.6619 50.0038 78.621 44.8747 74.4766 35.9181C73.5361 33.8865 53.6608 35.9058 53.6608 35.9058L49.6008 44.9007Z" fill="#846854"/>
<path d="M57.722 50.3354C57.5765 50.5763 57.6129 52.3079 58.3676 54.0895C59.0619 55.7295 60.4902 57.741 63.3525 58.0118C67.0099 58.3619 68.4556 56.0685 68.9895 54.6721C69.5371 53.2367 69.4221 51.9844 69.2266 51.8396C64.6359 48.4531 58.2657 50.1782 57.722 50.3354ZM64.0657 58.371C63.8273 58.371 63.5805 58.3593 63.322 58.3353C59.3549 57.9592 58.0111 54.398 57.6175 52.884C57.3109 51.7058 57.2089 50.2886 57.5454 50.0574L57.5889 50.036C57.6577 50.0152 64.5112 47.9576 69.4195 51.5785C69.8599 51.9039 69.7988 53.4634 69.2922 54.7883C68.8655 55.9048 67.5295 58.371 64.0657 58.371Z" fill="white"/>
<path d="M74.0463 52.5105C72.7928 52.5105 71.751 52.6482 71.5633 52.8021C71.3873 53.0392 71.1061 55.6567 72.0206 57.6156C72.6058 58.8698 73.543 59.5388 74.8056 59.605C76.1526 59.6764 77.0886 58.7834 77.6406 58.0228C78.7013 56.5653 79.0552 54.6487 78.7207 53.7725C78.5785 53.399 78.057 53.0827 77.2126 52.8586C76.254 52.604 75.0784 52.5105 74.0463 52.5105ZM74.9465 59.933C74.8939 59.933 74.842 59.9317 74.7894 59.9291C73.1974 59.846 72.0491 58.8659 71.4659 57.0934C70.8378 55.18 71.0522 52.8015 71.3574 52.5508C71.8653 52.1357 75.1901 51.9851 77.2958 52.5449C78.2583 52.8002 78.8403 53.1743 79.0241 53.6569C79.441 54.748 78.9377 56.792 77.903 58.2138C77.0931 59.3277 76.0481 59.933 74.9465 59.933Z" fill="white"/>
<path d="M71.1101 53.9496C70.55 53.6199 69.6793 53.7147 69.6711 53.7165L69.6337 53.3935C69.6742 53.3893 70.621 53.2837 71.2753 53.6696L71.1101 53.9496Z" fill="white"/>
<path d="M71.3905 74.4794C69.3745 73.3279 68.4067 81.42 59.1858 76.9079C56.7722 75.7271 54.2366 72.5874 52.2991 72.792C44.4642 78.655 41.8727 88.4462 40.7075 92.4829C39.0799 101.455 37.5107 138.407 39.1364 144.099C39.3527 144.314 76.2858 144.314 76.743 144.515C76.9171 142.531 82.986 112.56 83.7219 110.468C88.6698 96.4214 79.6242 79.1753 71.3905 74.4794Z" fill="#FA7463"/>
<path d="M96.0005 144.456C96.0005 144.456 49.3944 140.171 39.7838 138.864C37.8847 138.606 33.8247 135.943 34.3845 131.52C34.6833 129.161 38.492 125.086 45.1695 124.963C46.9627 124.93 53.1739 126.122 60.0936 127.965C85.2084 134.651 97.8795 137.192 97.8795 137.192L96.0005 144.456Z" fill="#846854"/>
<path d="M47.2884 137.61C46.9591 138.149 42.9874 138.387 39.0632 138.19C34.9681 136.503 32.3785 132.794 32.3019 131.589C31.3127 116.048 32.4539 106.916 33.8672 91.813C34.2744 87.4594 34.9512 83.2767 35.8839 80.6293C36.9997 77.4624 40.1342 75.5249 40.1342 75.5249C40.1342 75.5249 48.7732 75.2749 52.2564 80.426C52.9462 81.4457 52.8877 87.8017 51.8687 93.8641C50.834 100.013 47.947 136.533 47.2884 137.61Z" fill="#846854"/>
<path d="M30.3713 112.723C30.8413 114.696 51.3191 112.067 51.3191 112.067C51.3191 112.067 58.7783 79.7471 53.1401 74.5097C47.5011 69.2725 38.1274 76.5485 37.283 77.085C33.956 79.1996 29.2919 108.188 30.3713 112.723Z" fill="#FA7463"/>
<path d="M49.6351 39.2478C49.6351 39.2478 41.5716 37.2317 43.0119 31.1843C44.4516 25.1367 51.6517 24.8492 53.6667 27.4403C55.6827 30.0324 55.683 34.928 55.683 34.928L49.6351 39.2478Z" fill="#24372B"/>
<path d="M48.5737 39.0236C41.21 38.3738 38.8813 31.6374 38.8586 31.5692L39.1676 31.4667C39.1892 31.5332 41.4549 38.069 48.6027 38.7003L48.5737 39.0236Z" fill="#0F1411"/>
<path d="M52.9155 74.5035C52.455 74.0755 51.9679 73.739 51.4645 73.4675C44.3317 79.3825 41.8831 88.558 40.764 92.4342C40.0684 96.2707 40.0898 104.523 40.2594 113.169C45.6151 112.763 51.0949 112.061 51.0949 112.061C51.0949 112.061 58.5544 79.741 52.9155 74.5035Z" fill="#F54323"/>
<path d="M77.4825 41.9257C77.4825 41.9257 80.6721 34.1778 74.3629 31.4083C68.7227 28.9324 62.2679 28.2407 54.2044 33.4244C47.9796 37.4259 45.5648 43.7917 38.6535 44.9432C24.1664 47.3581 25.1387 56.679 25.1186 61.0703C25.0984 65.4622 20.7994 69.4215 15.9028 70.8615C5.68103 73.868 2.91481 103.334 29.4377 98.2196C32.8008 97.5714 38.8912 92.5489 38.3865 86.8943C38.08 83.4676 37.8637 81.4418 39.2296 79.7888C40.5955 78.1358 44.3145 76.8693 48.6817 77.0583C54.1018 77.2928 56.2387 75.5164 57.513 70.54C58.4145 67.0216 55.5567 56.9096 52.9626 54.2012C48.7525 49.806 50.3821 46.8469 53.8225 48.0283C56.7167 49.0221 56.7277 47.9822 59.2712 43.2701C61.4931 39.1562 67.9822 37.9501 67.9822 37.9501L77.4825 41.9257Z" fill="#24372B"/>
<path d="M19.1441 89.8439C16.7935 89.8439 15.147 89.5315 15.1074 89.523L15.1711 89.2048C15.264 89.223 24.5459 90.9837 30.5505 85.9937C33.7155 83.3638 33.2505 77.5937 32.84 72.5023C32.7212 71.0292 32.6088 69.6373 32.5939 68.4046C32.5412 64.1822 36.0005 62.6526 40.3794 60.7152C41.8576 60.0618 43.3859 59.3857 44.9785 58.5348C48.8761 56.4532 48.1844 53.4726 47.4524 50.3167C47.0088 48.4065 46.5503 46.4308 47.2173 44.6966C48.8105 40.5534 52.0353 37.7918 56.8019 36.4882C58.5173 36.0199 61.3237 35.5146 64.9616 35.7621L64.9389 36.0862C52.5848 35.2347 48.6377 41.907 47.52 44.8135C46.8893 46.4548 47.3362 48.3805 47.7681 50.2433C48.4962 53.3791 49.2489 56.6227 45.1324 58.8212C43.5282 59.6779 41.9947 60.356 40.5106 61.012C36.0739 62.9748 32.8692 64.3926 32.9186 68.4007C32.9335 69.6224 33.0453 71.0084 33.1635 72.4763C33.5804 77.6463 34.0526 83.5061 30.7584 86.2437C27.1744 89.2217 22.4591 89.8439 19.1441 89.8439Z" fill="#0F1411"/>
<path d="M10.7289 69.1975L10.6328 68.8871C10.842 68.8221 11.2375 68.7818 11.7863 68.7266C14.2999 68.472 20.1869 67.8771 20.8877 62.9721L20.9183 62.7539C21.7704 56.7869 22.4433 52.0735 25.8915 47.9875C29.1721 44.099 33.3821 43.2423 37.839 42.3356C41.4736 41.5958 45.2316 40.8313 49.0389 38.4509L49.2117 38.7263C45.3537 41.1373 41.5664 41.9082 37.9039 42.6538C33.5036 43.5488 29.3474 44.3945 26.1402 48.1966C22.7518 52.2118 22.0841 56.8843 21.2404 62.8L21.2086 63.0175C20.4721 68.1746 14.4083 68.7877 11.8188 69.0494C11.3096 69.1014 10.9069 69.1417 10.7289 69.1975Z" fill="#0F1411"/>
<path d="M48.4082 38.8211C49.122 39.0945 49.6111 39.2173 49.6111 39.2173L55.658 34.8975C55.658 34.8975 55.6554 34.0869 55.5209 32.9568C55.091 33.2055 54.6577 33.4627 54.218 33.7459C51.8947 35.2398 50.1021 37.0623 48.4082 38.8211Z" fill="#121F16"/>
<path d="M48.7382 38.4182L48.2206 38.026C48.3614 37.8401 51.7099 33.4679 55.8552 31.9414L56.0796 32.5507C52.1148 34.0111 48.771 38.3738 48.7382 38.4182Z" fill="#FF0000"/>
<path d="M2.38408 149.685H188.131V150.021H2.38408V149.685Z" fill="#345848"/>
<path d="M97.1523 140.071L65.1974 139.908C65.1974 139.908 64.9247 140.415 65.2854 141.888C65.5482 142.963 66.7053 143.791 68.2783 143.94C70.074 144.109 96.8006 144.364 96.8006 144.364" fill="white"/>
<path d="M96.7548 144.852C95.663 144.841 70 144.595 68.2184 144.427C66.5985 144.274 65.3684 143.42 65.0826 142.252C64.7183 140.761 64.9787 140.214 65.0099 140.156L65.0553 140.071L65.1534 140.071L97.1081 140.234L97.1068 140.558L65.2677 140.397C65.2177 140.59 65.1411 141.125 65.3989 142.175C65.6503 143.206 66.7694 143.963 68.2489 144.103C70.0169 144.27 96.4904 144.524 96.7574 144.527L96.7548 144.852Z" fill="#C7C6B6"/>
<path d="M84.4348 108.789L84.1202 108.708C86.4529 99.5902 81.377 89.6996 81.3257 89.6014L81.613 89.451C81.6652 89.5509 86.7989 99.5481 84.4348 108.789Z" fill="#EDB9B6"/>
<path d="M48.7293 46.5056C47.73 47.0568 45.9307 50.3674 47.0306 53.6781C48.4252 57.8795 50.9031 58.6409 53.0261 57.7609C55.1503 56.8819 57.1148 52.9679 55.256 49.1572C53.3975 45.3471 50.1279 45.7332 48.7293 46.5056Z" fill="#9EC8CF"/>
<path d="M51.8287 46.1621L51.5039 46.1485C51.6182 43.5148 55.234 34.3269 65.4129 34.3269C65.511 34.3269 65.609 34.3282 65.7078 34.3295C74.0772 34.4737 76.5615 41.4961 76.5855 41.5669L76.279 41.6715C76.255 41.6026 73.8375 34.7945 65.7026 34.6543C65.6058 34.653 65.509 34.6517 65.4135 34.6517C55.4697 34.6517 51.9397 43.5985 51.8287 46.1621Z" fill="#9EC8CF"/>
<path d="M48.7956 48.7471C47.6323 49.3544 47.1141 50.8372 47.4758 52.5252C47.8038 54.0554 48.8138 55.8312 50.6694 56.2287C51.2955 56.3644 51.8943 56.2118 52.3951 55.7883C53.1206 55.1745 53.5388 54.0743 53.4862 52.9162C53.4193 51.4477 52.6308 49.4739 51.3007 48.7081C50.5336 48.2671 49.6912 48.2795 48.7956 48.7471ZM51.113 56.6021C50.9454 56.6021 50.7746 56.5833 50.6005 56.5463C48.5942 56.1163 47.5076 54.2224 47.1582 52.5934C46.7646 50.7586 47.3485 49.1361 48.6462 48.4594C49.6315 47.945 50.6051 47.9333 51.4624 48.4269C52.9088 49.2589 53.7382 51.3081 53.811 52.9019C53.8675 54.1574 53.4057 55.359 52.6042 56.0364C52.1626 56.4105 51.654 56.6021 51.113 56.6021Z" fill="white"/>
<path d="M71.0117 68.5467C56.2701 68.3463 52.6413 58.1868 52.6064 58.0844L52.9136 57.9794C52.9475 58.0797 56.513 68.0256 71.0156 68.2218L71.0117 68.5467Z" fill="#9EC8CF"/>
<path d="M73.344 69.6428C73.0907 69.6428 72.0054 69.6285 71.5462 69.3889C71.291 69.2551 71.1176 68.9803 71.0721 68.6355C71.0189 68.2347 71.152 67.832 71.4196 67.5846C71.9288 67.1137 73.0537 67.3423 73.1011 67.3521L73.0342 67.6697C72.7549 67.6119 71.96 67.5261 71.6404 67.8229C71.4488 67.9996 71.3546 68.2945 71.3936 68.5926C71.4254 68.8284 71.5384 69.0187 71.6969 69.1012C72.06 69.2908 73.0426 69.32 73.3914 69.3181L73.3953 69.6428H73.344Z" fill="#9EC8CF"/>
<path d="M74.241 66.4002C74.2215 66.4048 73.8565 66.4996 73.3524 67.1959C72.8341 67.9123 73.2264 69.3399 73.7473 69.7627C74.126 70.0693 74.9853 70.2881 75.6536 70.1238C76.2031 69.9887 76.6805 69.4107 76.8507 68.9346C77.013 68.4799 77.0572 67.5304 76.5162 66.7808C75.9894 66.054 74.6852 66.208 74.2786 66.3885L74.241 66.4002ZM75.1457 70.5064C74.5112 70.5064 73.8837 70.2907 73.5434 70.0147C72.9186 69.5087 72.4477 67.8921 73.0901 67.0056C73.6304 66.2586 74.0507 66.1118 74.1624 66.0852C74.7716 65.8248 76.1856 65.7683 76.7786 66.5905C77.3936 67.442 77.341 68.5241 77.1559 69.0437C76.9533 69.6133 76.398 70.2758 75.7309 70.4388C75.5406 70.4856 75.3425 70.5064 75.1457 70.5064Z" fill="#9EC8CF"/>
<path d="M137.996 37.4052C124.775 37.4052 109.632 37.6832 105.555 38.2833C98.754 39.2836 95.6299 42.8461 95.4246 49.834C95.2181 56.8564 100.354 62.09 103.98 62.6083C107.759 63.1481 111.657 63.2221 111.696 63.2228L111.858 63.2254L111.791 69.004L118.62 63.6332H118.676C119.014 63.6332 152.542 63.6196 158.516 63.428C162.238 63.3085 165.765 61.6874 168.193 58.9789C170.296 56.6349 171.326 53.6816 171.094 50.6634C170.5 42.9461 165.589 38.2346 157.621 37.7365C154.145 37.5195 146.465 37.4052 137.996 37.4052ZM111.459 69.6788L111.529 63.5436C110.752 63.5235 107.296 63.4105 103.934 62.9298C100.191 62.3953 94.8882 57.024 95.0999 49.8249C95.3103 42.648 98.5208 38.9893 105.507 37.9612C112.208 36.9759 148.73 36.8551 157.641 37.4124C165.789 37.9216 170.809 42.7421 171.417 50.6387C171.656 53.7459 170.597 56.7849 168.435 59.1959C165.948 61.9699 162.337 63.6307 158.526 63.7528C152.662 63.9405 120.297 63.9573 118.733 63.958L111.459 69.6788Z" fill="#345848"/>
<path d="M156.538 44.9673L156.539 45.3154L111.149 45.497L111.147 45.1489L156.538 44.9673Z" fill="#345848"/>
<path d="M110.728 49.9149L146.26 50.1201L146.258 50.4449L110.726 50.2396L110.728 49.9149Z" fill="#345848"/>
<path d="M110.914 54.9248H145.213V55.2496H110.914V54.9248Z" fill="#345848"/>
<path d="M95.4967 78.8553C95.1876 78.6884 87.9047 74.7128 85.7834 70.7249C83.9525 67.2826 84.956 65.2074 86.0199 63.0102C87.0785 60.822 88.2782 58.3429 86.924 53.9945C86.3375 52.1123 84.7995 50.5671 83.1712 48.931C81.7091 47.4625 80.1971 45.9433 79.3008 44.0812L79.5944 43.9409C80.466 45.753 81.9585 47.2521 83.4017 48.7017C85.0586 50.3671 86.6239 51.9401 87.2331 53.8984C88.6263 58.3689 87.3968 60.9097 86.3115 63.1511C85.2411 65.3646 84.3162 67.2754 86.0699 70.5729C88.145 74.4732 95.5766 78.5293 95.6513 78.5702L95.4967 78.8553Z" fill="#24372B"/>
<path d="M96.0005 144.456C96.0005 144.456 49.3944 140.171 39.7838 138.864C37.8847 138.606 33.8247 135.943 34.3845 131.52C34.6833 129.161 38.492 125.086 45.1695 124.963C46.9627 124.93 53.1739 126.122 60.0936 127.965C85.2084 134.651 97.8795 137.192 97.8795 137.192L96.0005 144.456Z" fill="#846854"/>
<path d="M51.9354 94.0756C50.9004 100.224 48.0138 136.745 47.3551 137.822L51.9354 94.0756Z" fill="#846854"/>
<path d="M47.2134 137.968C47.4589 137.566 48.0148 132.231 48.6689 125.381C47.0458 125.101 45.8169 124.951 45.17 124.963C38.4919 125.086 34.6832 129.16 34.3845 131.52C34.0441 134.209 35.4133 136.243 36.9649 137.486C37.5897 137.886 38.2639 138.25 38.9881 138.548C42.913 138.745 46.8841 138.506 47.2134 137.968Z" fill="#765C4C"/>
<path d="M105.417 96.2875C104.096 97.0787 95.7332 143.926 96.5256 144.628C97.3177 145.332 160.525 145.332 161.405 144.277C162.286 143.223 170.815 95.0187 170.209 95.5845C169.355 96.3803 106.737 95.4964 105.417 96.2875Z" fill="white"/>
<path d="M96.7995 144.592C97.8094 144.885 112.151 145.083 129.085 145.037C147.788 144.985 160.793 144.668 161.448 144.247C161.799 143.764 163.732 134.029 166.241 120.037C168.474 107.586 170.169 97.2992 170.23 95.8703C168.524 96.1931 158.226 96.2158 138.084 96.1873C123.257 96.1658 106.459 96.1424 105.655 96.514C105.098 97.016 102.99 106.841 100.523 120.43C98.2102 133.179 96.591 143.693 96.7995 144.592ZM120.814 145.367C108.017 145.367 96.995 145.215 96.5702 144.837C96.4897 144.766 96.3987 144.685 96.5267 143.313C97.219 135.898 104.159 97.0303 105.486 96.236C106.138 95.8463 118.239 95.8352 138.084 95.8625C152.818 95.8839 169.524 95.9073 170.268 95.5397L170.38 95.4358L170.488 95.5514C170.85 95.8937 167.898 112.625 166.612 119.803C165.898 123.792 162.303 143.727 161.683 144.468C161.617 144.547 161.519 144.665 159.777 144.796C155.288 145.132 136.686 145.367 120.814 145.367Z" fill="#C7C6B6"/>
<path d="M135.953 114.303C134.976 114.303 133.383 114.885 132.226 116.014C131.544 116.679 130.739 117.808 130.779 119.413C130.827 121.303 131.372 122.784 132.358 123.696C133.224 124.5 134.412 124.868 135.891 124.792C139.353 124.615 140.931 122.155 140.931 119.945C140.931 117.941 139.907 114.498 136.067 114.306C136.03 114.304 135.992 114.303 135.953 114.303ZM135.518 125.127C134.127 125.127 132.991 124.727 132.137 123.934C131.086 122.962 130.504 121.401 130.455 119.421C130.42 118.058 130.955 116.8 131.999 115.781C133.282 114.53 135.021 113.928 136.083 113.982C140.166 114.185 141.256 117.826 141.256 119.945C141.256 122.304 139.582 124.928 135.908 125.117C135.776 125.124 135.645 125.127 135.518 125.127Z" fill="#C7C6B6"/>
<path d="M23.1052 144.429L167.552 144.908L167.84 149.804L21.959 149.685L23.1052 144.429Z" fill="white"/>
<path d="M22.3623 149.442L167.869 149.561L167.601 144.989L23.4372 144.511L22.3623 149.442ZM168.214 149.886H168.042L21.959 149.766L23.1761 144.186L23.3073 144.186L167.906 144.666L168.214 149.886Z" fill="#24372B"/>
</g>
<defs>
<clipPath id="clip0_1251_86853">
<rect width="184.615" height="150" fill="white"/>
</clipPath>
</defs>
</svg>
