<svg width="160" height="139" viewBox="0 0 160 139" fill="none" xmlns="http://www.w3.org/2000/svg">
<path d="M1.53146 89.6089C4.94144 78.5628 22.0025 59.2772 13.2385 50.027C-7.95496 27.6569 1.90739 4.16961 34.4254 7.05396C40.2806 7.57349 45.8724 9.68436 50.9236 12.8132C75.2559 27.8837 104.348 -15.2163 126.53 7.62173C148.1 29.8305 118.577 44.9275 141.65 50.7678C174.147 60.4421 156.523 128.824 141.773 139.149C109.471 138.903 77.2071 139.64 50.5643 138.903C40.6609 138.166 -9.31452 124.741 1.53146 89.6089Z" fill="#FFF0ED"/>
<path d="M120.484 42.0747C117.782 43.2231 119.403 51.8692 125.145 49.0326C128.922 47.166 131.47 50.6228 133.926 50.9908C138.764 51.7171 142.545 47.689 146.642 49.5948C151.389 51.8018 155.173 49.02 156.118 44.6417C156.861 41.1964 154.376 44.8824 151.957 38.3512C149.538 31.82 148.262 29.3688 145.286 25.9944C142.807 23.182 136.748 22.3273 133.119 23.5973C130.251 24.6012 127.986 26.0502 126.669 28.6852C125.415 31.1934 127.154 32.6004 126.942 33.682C126.442 36.226 126.022 37.887 124.266 39.643C122.99 40.9193 121.807 41.512 120.484 42.0747Z" fill="#24372B"/>
<path d="M142.719 24.3372C142.557 23.4456 142.638 21.1758 145.151 19.717C146.438 18.97 148.462 18.4395 150.42 18.9873C152.446 19.5551 153.678 20.5653 154.148 22.068C154.553 23.365 154.797 25.3099 154.31 26.607C153.962 27.5331 153.792 28.2582 151.96 29.444C150.581 30.3356 149.852 30.4168 147.826 30.4168C146.303 30.4168 144.664 29.7683 143.773 28.2282C142.881 26.6882 142.739 24.4501 142.719 24.3372Z" fill="#24372B"/>
<path d="M156.22 47.3164C154.987 47.3164 153.712 46.6535 152.608 45.4308C150.744 43.3678 149.74 40.1379 150.167 37.5773C150.85 33.4812 149.848 31.1365 148.887 29.8907C147.849 28.5448 146.633 28.1549 146.621 28.1514L146.7 27.8945C146.751 27.9107 151.776 29.555 150.432 37.6216C150.017 40.1068 150.994 43.244 152.807 45.2511C153.92 46.4836 155.203 47.12 156.42 47.0417L156.437 47.3095C156.365 47.3141 156.292 47.3164 156.22 47.3164Z" fill="#345848"/>
<path d="M132.606 93.041C128.07 92.1264 123.99 91.6673 122.006 91.4295C116.139 90.7257 109.485 90.2626 104.079 88.0602C99.8636 86.3428 98.0022 85.8434 97.0346 85.2704C96.3757 84.881 94.0587 85.1258 92.696 87.8667C92.2405 88.7819 91.6674 90.0207 92.7012 91.0459C93.8767 92.2122 97.1699 92.3665 98.0534 92.6885C100.046 93.4153 98.6858 92.9246 104.986 95.5901C111.373 98.293 119.299 102.022 130.958 104.173C131.81 104.331 133.41 103.672 133.41 103.672C133.41 103.672 135.387 101.417 136.089 99.787C137.116 97.4031 137.257 94.118 137.257 94.118L132.606 93.041Z" fill="#AF897E"/>
<path d="M117.996 138.718C117.996 138.718 125.358 104.08 125.744 102.286C125.89 101.611 129.065 97.9102 129.877 97.9102C134.746 97.9102 153.335 100.949 153.335 100.949L154.612 106.054C154.612 106.054 157.529 114.259 157.711 115.535C158.22 119.098 158.422 138.951 158.422 138.951L117.996 138.718Z" fill="#345848"/>
<path d="M65.1292 138.201L63.1445 118L36.309 120.25C36.309 120.25 35.7947 128.111 35.5442 130.913C35.3438 133.15 35.7913 135.713 36.4864 138.328C43.1011 138.463 65.1292 138.201 65.1292 138.201Z" fill="#9EC8CF"/>
<path d="M37.4815 138.401C36.7368 135.605 36.2438 132.855 36.4523 130.467C36.7028 127.594 37.2171 119.535 37.2171 119.535L25.3821 116.785C25.503 117.131 24.6288 122.963 24.2999 125.805C24.1496 127.11 23.6324 131.217 23.6289 132.908C23.6266 134.141 24.0159 136.149 24.5412 138.412L37.4815 138.401Z" fill="#9EC8CF"/>
<path d="M94.2411 138.361L93.9531 138.355L96.3053 22.9737V4.85166L168.939 4.14844L168.943 4.28897L173.149 137.97L172.861 137.98L168.66 4.43929L96.5932 5.13675V22.9766L94.2411 138.361Z" fill="#345848"/>
<path d="M121.963 70.6094L122.169 95.8636L136.733 94.9482C136.733 94.9482 126.278 70.1842 125.251 69.9271C124.224 69.6711 121.963 70.6094 121.963 70.6094Z" fill="#AF897E"/>
<path d="M160.045 65.1013C160.045 65.1013 159.969 60.6395 159.467 59.6345C158.892 58.4855 155.74 56.6684 155.74 56.6684L144.867 54.0703C144.867 54.0703 143.698 58.6606 139.173 58.364C134.647 58.0674 133.437 54.5633 133.437 54.5633C133.437 54.5633 122.152 58.1981 119.342 59.475C116.719 62.156 116.789 70.586 116.789 70.586L123.547 72.4596L124.035 104.863L130.182 106.322L154.771 104.985L160.045 65.1013Z" fill="#FFAC92"/>
<path d="M19.0299 77.4517C19.0299 77.4517 11.6839 94.5422 13.1057 95.3759C14.528 96.2093 25.4176 95.5115 26.9629 94.6609C28.5088 93.81 26.376 78.1057 26.376 78.1057L19.0299 77.4517Z" fill="#F1CFB4"/>
<path d="M48.2393 118.249C48.2393 118.249 39.8006 110.507 36.0529 105.862C34.5463 103.994 32.6422 97.2489 26.8298 93.9683C25.0006 92.9363 17.0762 89.3268 12.9727 94.6837C14.7857 103.028 26.8304 114.376 31.6619 118.814C39.4348 118.598 47.0119 117.854 48.2393 118.249Z" fill="#F1CFB4"/>
<path d="M159.307 63.8125C159.24 68.1447 160.566 76.5546 160.908 82.1407C160.908 82.1407 161.292 86.6319 161.266 88.5774C161.239 90.5414 158.565 94.5736 156.225 94.5396C150.871 94.4601 151.21 85.4339 151.21 85.4339C151.193 82.0578 150.223 75.8883 150.287 73.6156C150.401 69.4959 150.378 68.1856 150.273 65.2155L159.307 63.8125Z" fill="#AF897E"/>
<path d="M149.018 56.5078L148.133 79.3342C148.133 79.3342 163.33 79.5398 163.528 78.8717C163.726 78.2036 161.817 64.8665 159.41 59.3777C158.271 58.3209 154.265 57.0826 154.265 57.0826L149.018 56.5078Z" fill="#FFAC92"/>
<path d="M137.826 119.205L138.098 119.219L137.133 138.511L136.862 138.498L137.826 119.205Z" fill="#24372B"/>
<path d="M154.631 120.558C149.741 116.573 145.519 108.016 145.476 107.93L145.735 107.803C145.777 107.888 149.972 116.39 154.813 120.334L154.631 120.558Z" fill="#24372B"/>
<path d="M124.562 63.2919L124.707 72.3359L124.419 72.3405L124.275 63.2965L124.562 63.2919Z" fill="#FF8D69"/>
<path d="M50.9575 57.1172C53.6645 57.4345 58.78 58.9827 61.5318 61.2496C65.1113 65.4925 69.9233 73.5085 72.9482 80.2079C75.3907 85.6171 82.9091 98.9559 83.2598 103.569C82.3821 104.451 80.7464 105.123 75.5099 106.465C74.4398 107.148 68.1753 100.469 64.631 94.5511C61.9327 90.0444 50.798 75.4039 50.2278 67.57C49.7423 60.885 50.9575 57.1172 50.9575 57.1172Z" fill="#F1CFB4"/>
<path d="M124.123 78.7851C122.011 79.0258 120.52 77.2894 118.586 76.9115C116.293 76.464 115.215 76.5971 114.392 76.4491C113.569 76.3016 112.557 76.0113 112.717 75.3323C112.877 74.6539 113.642 74.5248 114.162 74.5582C115.105 74.6187 117.006 74.6331 117.039 74.4217C117.056 74.3158 113.021 74.0814 112.344 74.014C111.667 73.9472 111.077 74.0042 110.519 73.8498C109.961 73.6955 109.6 73.3044 109.71 72.9433C109.82 72.5822 109.973 72.2833 110.683 72.1387C110.024 71.9659 109.243 71.8801 108.892 71.7626C108.54 71.6451 108.136 71.1919 108.306 70.787C108.475 70.3821 109.057 70.0509 109.588 70.0377C110.119 70.0244 111.881 69.9588 112.611 69.9818C113.347 70.0054 114.546 69.7854 114.546 69.7854C114.546 69.7854 110.972 69.3068 110.355 69.1962C109.737 69.0856 109.317 68.7378 109.444 68.2713C109.57 67.8042 110.271 67.386 111.419 67.4828C112.568 67.5801 118.586 68.3807 120.59 69.02C123.255 69.8695 123.773 71.1757 127.474 73.6621C127.226 79.1721 124.123 78.7851 124.123 78.7851Z" fill="#AF897E"/>
<path d="M156.898 86.5965C152.658 84.7414 148.769 83.4282 146.879 82.7751C141.295 80.844 134.891 78.9814 130.074 75.6835C126.319 73.1119 124.605 72.229 123.781 71.4647C123.22 70.9435 120.903 70.6924 118.99 73.082C118.352 73.8802 117.529 74.9694 118.322 76.1898C119.224 77.5795 122.409 78.4279 123.205 78.9295C124.998 80.0624 123.773 79.2941 129.364 83.2347C135.034 87.2294 143.633 93.6385 154.57 98.2115C155.37 98.5455 158.136 98.4851 158.136 98.4851C158.136 98.4851 161.248 96.4065 161.577 95.2552C161.96 93.9144 161.13 88.3606 161.13 88.3606L156.898 86.5965Z" fill="#AF897E"/>
<path d="M79.1452 74.0678C79.1452 74.0678 76.5451 118.401 77.4192 119.047C78.2934 119.693 116.982 120.023 117.45 118.521C117.918 117.019 112.969 73.5419 112.969 73.5419L79.1452 74.0678Z" fill="#FF3000"/>
<path d="M82.9883 62.8731L109.457 61.9844L108.535 77.2923L106.042 77.2497L106.918 64.5652L86.0828 65.2644L89.053 77.6506L86.6202 78.1977L82.9883 62.8731Z" fill="#FF5636"/>
<path d="M90.293 93.0489C90.5821 93.6836 90.4663 94.0954 90.9639 94.6333C91.4616 95.1718 91.7605 95.4943 92.0692 95.5053C92.3779 95.5162 94.3378 95.378 95.4695 95.4183C96.6007 95.4586 97.5268 95.4915 97.6132 96.015C97.699 96.5385 97.6898 96.8501 96.8633 96.9244C96.038 96.9993 94.2923 96.8334 93.9807 96.9261C93.6686 97.0194 92.5409 96.8749 93.0391 97.4128C93.5367 97.9507 94.6373 99.2955 94.9621 99.2765C95.5041 99.2431 97.5049 99.299 98.2312 99.2627C99.4436 99.2017 100.535 97.2118 100.489 96.2212C100.443 95.2357 99.5455 93.4826 98.4172 93.338C97.2895 93.194 93.9992 93.0771 93.2792 93.0512C92.5593 93.0253 90.293 93.0489 90.293 93.0489Z" fill="white"/>
<path d="M89.6787 63.8203C89.6787 63.8203 78.9955 81.6693 76.5518 87.3395C76.3808 91.2162 74.4727 106.122 74.4727 106.122C74.4727 106.122 80.1998 109.4 81.4243 108.307C82.7616 107.112 94.6865 68.232 94.6865 68.232C93.4056 67.5518 89.6787 63.8203 89.6787 63.8203Z" fill="#F1CFB4"/>
<path d="M94.2842 69.5182C95.2777 69.2359 96.9336 69.3114 98.0342 68.6663C99.1348 68.0219 100.436 68.3139 100.92 67.9107C101.402 67.5075 101.392 66.3902 101.392 66.3902C101.392 66.3902 101.965 66.3678 102.468 65.7429C102.971 65.1185 102.451 64.4666 102.423 64.3525C102.396 64.2385 103.015 63.6712 102.948 63.1811C102.881 62.6909 102.075 62.134 102.075 62.134C102.075 62.134 102.486 61.5016 102.56 61.0985C102.634 60.6959 102.188 60.052 101.63 59.9627C100.92 59.8487 98.7985 59.2687 98.1344 59.0723C97.4438 58.8678 96.3167 58.858 95.6187 59.4397C94.9212 60.022 93.5793 60.4188 92.8213 61.0414C91.9229 61.7786 90.6402 62.4508 89.5753 63.7933C89.5753 63.7933 88.7575 65.6686 90.5636 67.2979C92.3698 68.9267 94.2842 69.5182 94.2842 69.5182Z" fill="#F1CFB4"/>
<path d="M20.1555 68.0781C20.1555 68.0781 12.185 85.0915 13.0363 86.1247C14.365 87.7391 23.0024 91.2298 23.0024 91.2298L20.1555 68.0781Z" fill="#FF421C"/>
<path d="M36.7698 55.5248C36.7698 55.5248 51.8399 53.7682 59.6192 59.8455C64.3361 63.531 64.6022 125.359 64.6022 125.359L51.1102 127.547L23.033 125.359C23.033 125.359 17.6796 73.4268 19.9183 68.5411C21.4699 65.1568 24.1976 61.0031 24.1976 61.0031L36.7698 55.5248Z" fill="#FF421C"/>
<path d="M43.4965 59.9935C40.6675 59.9935 37.7607 59.1094 35.4961 57.5238L35.6614 57.2882C38.2456 59.0973 41.6846 59.9744 44.862 59.6335C48.4081 59.2534 50.7735 57.1385 50.7971 57.1172L50.9906 57.3303C50.9664 57.3527 48.5308 59.5298 44.8926 59.9197C44.4318 59.9693 43.9647 59.9935 43.4965 59.9935Z" fill="#ED0000"/>
<path d="M61.4393 119.948L63.8491 125.194L51.229 127.241L24.2461 125.053L26.0695 119.219L45.7645 120.283L61.4393 119.948Z" fill="#FF1800"/>
<path d="M74.0151 82.3492C73.7717 83.8082 63.8047 95.4766 63.8047 95.4766C63.8047 95.4766 53.4546 56.8941 54.3248 57.0675C55.54 57.311 65.0907 61.8718 65.8204 63.3307C68.3261 68.342 74.2579 80.8913 74.0151 82.3492Z" fill="#FF421C"/>
<path d="M57.3682 84.9041L64.418 94.8711L64.1829 95.0374L57.1331 85.0703L57.3682 84.9041Z" fill="#ED0000"/>
<path d="M56.6446 34.2702C56.3871 34.2702 55.8993 35.6144 55.8843 38.1877C55.8682 40.7622 56.3405 42.1122 56.5979 42.1139C56.8554 42.1139 57.3432 40.7697 57.3582 38.1964C57.3743 35.6219 56.902 34.2719 56.6446 34.2702ZM56.5979 42.4036H56.5962C55.8423 42.399 55.5837 39.8787 55.594 38.186C55.6038 36.4945 55.8924 33.9805 56.6446 33.9805H56.6463C57.4002 33.9851 57.6588 36.5054 57.6485 38.1981C57.6387 39.8896 57.3501 42.4036 56.5979 42.4036Z" fill="#FF0000"/>
<path d="M48.4559 46.5682L49.2738 56.7509L47.065 57.7881C47.065 57.7881 43.7747 58.1181 42.4702 58.0709C41.1662 58.0231 36.4297 56.4525 36.4297 56.4525L38.836 41.8984L48.4559 46.5682Z" fill="#F1CFB4"/>
<path d="M54.9592 31.9685C54.9592 31.9685 56.3547 37.8592 56.505 40.6093C56.7106 44.3633 55.8456 47.349 55.8456 47.349C55.8456 47.349 55.3399 51.1761 52.7534 51.391C48.155 51.7722 45.6877 48.7169 44.4633 46.4102C43.6109 44.8039 46.9559 39.2945 46.9559 39.2945C46.9559 39.2945 46.6824 33.2309 47.2497 32.4615C47.8175 31.692 50.1374 30.2291 50.9576 29.7355C51.3077 29.5248 54.9592 31.9685 54.9592 31.9685Z" fill="#F1CFB4"/>
<path d="M57.8906 23.207C59.445 25.9692 58.7948 29.058 58.1843 30.4811C57.1747 32.8339 54.2264 32.4134 54.2264 32.4134L52.2147 31.4654C52.2147 31.4654 48.8454 36.1997 49.0003 36.7866C49.9201 40.2693 47.4159 47.783 46.5601 48.2369C45.5717 48.7615 36.939 48.9407 32.7225 40.2814C30.1319 34.9614 32.1097 28.8645 35.7347 26.9403C37.9515 25.763 39.9897 25.9542 38.7514 24.6947C37.512 23.4356 41.884 19.6557 43.5986 19.3862C45.312 19.1161 48.0639 22.3909 48.9733 22.0113C49.8821 21.6324 53.2162 19.0481 54.0755 19.4C54.9343 19.7513 56.3355 20.4448 57.8906 23.207Z" fill="#24372B"/>
<path d="M35.6155 42.7843C32.0521 34.978 32.2157 31.2246 36.1989 29.3965C37.3681 28.8603 38.4716 28.695 39.5388 28.5355C41.1699 28.2913 42.71 28.0615 44.3526 26.5514C45.2027 25.7693 45.6116 24.9007 45.5667 23.9694C45.4693 21.9329 43.2444 20.2275 43.222 20.2103L43.3953 19.9805C43.4915 20.053 45.7498 21.7832 45.8546 23.9545C45.9036 24.9756 45.4641 25.9207 44.5472 26.7633C42.8401 28.3328 41.2574 28.5695 39.5814 28.82C38.5338 28.9773 37.451 29.1391 36.3193 29.658C32.5233 31.3997 32.3994 35.0465 35.8776 42.6645L35.6155 42.7843Z" fill="#345848"/>
<path d="M43.771 29.6609C43.1789 29.6609 42.5546 29.601 41.8945 29.4703L41.951 29.1881C50.3522 30.8485 53.0603 20.6924 53.0862 20.5898L53.365 20.6613C53.3402 20.758 50.9697 29.6609 43.771 29.6609Z" fill="#345848"/>
<path d="M49.025 43.8421C45.4524 43.4107 43.9164 38.8078 44.4163 37.9595C45.2174 36.5991 49.5969 37.1289 49.5969 37.1289C49.5969 37.1289 49.5796 43.9089 49.025 43.8421Z" fill="#F1CFB4"/>
<path d="M48.238 37.0494L57.1172 37.6328L57.0982 37.9219L48.2191 37.3385L48.238 37.0494Z" fill="#FF0000"/>
<path d="M49.3452 55.7154L49.4074 56.6288L47.1762 57.8642C47.1762 57.8642 43.8513 58.2576 42.5335 58.2006C41.2158 58.1441 36.4297 56.2746 36.4297 56.2746L36.5328 55.4274C36.565 55.4124 36.5869 55.4026 36.5869 55.4026C36.5869 55.4026 42.8716 54.9983 49.3452 55.7154Z" fill="#E8C2A7"/>
<path d="M130.895 106.3L154.232 104.963L153.138 100.588C153.138 100.588 134.249 99.1289 129.38 99.1289C128.568 99.1289 125.004 102.593 125.004 102.593C125.004 102.593 125.128 103.213 125.004 104.781L130.895 106.3Z" fill="#FF9C7D"/>
<path d="M149.091 67.9014L150.879 79.6484L150.594 79.6919L148.806 67.9448L149.091 67.9014Z" fill="#FF8D69"/>
<path d="M40.0972 138.576C39.9849 135.071 40.1531 130.97 40.1548 130.929L40.1606 130.789L40.3005 130.791L58.93 131.036L58.9173 131.19C58.9138 131.229 58.581 135.112 58.1185 138.459L57.8328 138.42C58.2423 135.458 58.5499 132.075 58.6167 131.32L40.437 131.08C40.4088 131.829 40.2844 135.437 40.3852 138.567L40.0972 138.576Z" fill="#7BA9AE"/>
<path d="M17.4352 138.699H175.836V138.998H17.4352V138.699Z" fill="#345848"/>
<path d="M142.539 24.5378C141.321 21.6725 142.634 19.5305 144.271 18.4817C146.532 17.0321 150.198 17.0799 152.83 19.9752L152.631 20.1554C150.1 17.3702 146.582 17.3195 144.416 18.7075C142.872 19.6976 141.633 21.7214 142.787 24.4324L142.539 24.5378Z" fill="#24372B"/>
<path d="M145.166 54.4536C143.422 54.1984 142.511 53.8338 142.143 52.6837C141.173 49.6473 141.867 48.128 142.753 42.5039C141.127 45.5921 134.072 47.4991 134.094 47.7657C134.116 48.033 134.462 52.8346 132.859 55.2599C132.528 55.761 132.258 56.0708 132.008 56.277L133.85 61.2785L133.908 61.3591C133.908 61.3591 142.295 61.472 143.156 60.5004C144.017 59.5288 145.166 54.4536 145.166 54.4536Z" fill="#A48177"/>
<path d="M145.271 35.9666C145.512 36.7551 144.351 43.0116 143.758 44.5965C143.164 46.1815 137.697 49.6717 135.635 49.8964C133.969 50.0778 133.092 48.9334 131.899 47.3979C130.411 45.4818 129.399 43.0306 129.607 41.6512C129.863 39.9487 129.119 37.884 128.973 35.3222C128.94 34.7376 130.692 33.2044 131.735 31.5469C135.418 33.1428 144.596 33.603 144.596 33.603L145.271 35.9666Z" fill="#AF897E"/>
<path d="M142.663 37.4042L142.668 37.6328L125.794 37.9703L125.789 37.7417L142.663 37.4042Z" fill="white"/>
<path d="M130.043 43.0864C129.543 43.0864 129.087 42.9125 128.684 42.5681C127.12 41.2336 126.846 37.7958 126.836 37.6507L127.065 37.6328C127.068 37.6679 127.343 41.1207 128.833 42.393C129.237 42.7374 129.698 42.8906 130.207 42.8491C133.148 42.6061 133.323 37.7065 133.324 37.657L133.555 37.6639C133.554 37.7157 133.513 38.9575 133.093 40.2522C132.526 41.9933 131.536 42.9701 130.227 43.0783C130.165 43.0835 130.103 43.0864 130.043 43.0864Z" fill="white"/>
<path d="M138.125 42.996C137.404 42.996 136.782 42.7518 136.273 42.2692C134.784 40.8592 134.754 37.9191 134.754 37.7947L134.985 37.7935C134.985 37.8229 135.015 40.7608 136.432 42.1027C136.932 42.5761 137.549 42.799 138.278 42.7616C139.745 42.6884 140.797 41.8101 141.405 40.1526C141.865 38.8976 141.884 37.6449 141.884 37.6328L142.115 37.6351C142.114 37.687 142.018 42.8048 138.289 42.992C138.234 42.9948 138.18 42.996 138.125 42.996Z" fill="white"/>
<path d="M143.734 38.035C143.734 38.035 145.093 35.4054 145.882 36.2383C146.671 37.0711 146.671 39.7006 146.32 40.3141C145.97 40.9271 144.129 41.8924 144.129 41.8924L143.734 38.035Z" fill="#AF897E"/>
<path d="M121.037 50.1762C119.125 49.8347 118.21 47.717 118.322 45.8981C118.421 44.2659 119.421 42.3117 121.913 42.1752C123.978 42.0618 125.316 41.5406 126.002 40.5828C127.234 38.8607 126.362 35.7529 125.351 32.1544C124.914 30.5965 125.103 29.1584 125.912 27.8798C128.228 24.2197 134.758 23.0707 135.035 23.0234L135.08 23.2878C135.014 23.2993 128.391 24.4644 126.138 28.0238C125.372 29.2356 125.194 30.6005 125.61 32.0819C126.639 35.7472 127.528 38.912 126.221 40.7388C125.485 41.7675 124.08 42.325 121.928 42.4431C119.615 42.5698 118.687 44.3195 118.589 45.9143C118.485 47.6179 119.324 49.598 121.084 49.9119L121.037 50.1762Z" fill="#345848"/>
<path d="M136.873 74.9402C136.798 74.9402 136.723 74.939 136.647 74.9373C134.962 74.8901 133.565 74.2104 132.495 72.9163C130.749 70.8037 129.869 67.1194 129.879 61.9648C129.886 58.1393 130.41 54.887 130.415 54.8542L130.7 54.9008C130.678 55.0293 128.65 67.8117 132.717 72.7332C133.731 73.9599 135.057 74.6044 136.656 74.6493C138.475 74.7011 140.009 74.1183 141.228 72.9215C145.129 69.0909 145.042 59.7422 144.999 55.2493C144.996 54.8133 144.992 54.4176 144.992 54.0703H145.28C145.28 54.417 145.284 54.8116 145.287 55.2464C145.33 59.7791 145.418 69.2107 141.429 73.1265C140.203 74.3308 138.671 74.9402 136.873 74.9402Z" fill="white"/>
<path d="M137.066 69.479C131.128 69.479 130.794 61.4821 130.613 57.1562C130.576 56.2739 130.545 55.5119 130.473 55.0281L130.757 54.9849C130.832 55.4842 130.864 56.2537 130.901 57.1441C131.08 61.4337 131.417 69.4215 137.324 69.1859C144.125 68.9175 144.448 61.2218 144.708 55.0373L144.749 54.0703L145.037 54.0836L144.996 55.0494C144.731 61.3519 144.401 69.1945 137.336 69.4739C137.245 69.4773 137.154 69.479 137.066 69.479Z" fill="white"/>
<path d="M151.453 83.9496L157.582 86.3438L157.477 86.612L151.348 84.2178L151.453 83.9496Z" fill="#A48177"/>
</svg>
