<svg width="168" height="150" viewBox="0 0 168 150" fill="none" xmlns="http://www.w3.org/2000/svg">
<g clip-path="url(#clip0_1251_86325)">
<path d="M1.60642 97.1417C5.18333 85.5548 23.0795 65.3252 13.8866 55.6222C-8.34437 32.1571 2.00076 7.52006 36.1105 10.5456C42.2523 11.0906 48.1179 13.3048 53.4164 16.5868C78.9398 32.395 109.456 -12.8148 132.724 11.1412C155.35 34.437 124.382 50.2731 148.584 56.3993C182.671 66.5472 164.185 138.276 148.713 149.107C114.829 148.849 80.9865 149.622 53.0395 148.849C42.6513 148.076 -9.77048 133.994 1.60642 97.1417Z" fill="#FFF0ED"/>
<g clip-path="url(#clip1_1251_86325)">
<path d="M116.664 18.8196C116.527 19.2309 117.295 22.905 118.035 23.3163C118.803 23.7276 121.216 23.9469 122.889 23.6728C124.561 23.3986 127.605 24.3582 127.605 24.3582C127.605 24.3582 126.7 20.0809 126.289 19.6422C125.877 19.2309 124.918 19.0115 123.519 19.2857C122.121 19.5599 119.927 19.9163 119.16 19.6422C118.392 19.368 116.664 18.8196 116.664 18.8196Z" fill="#004C1B"/>
<path d="M122.065 23.344C122.038 23.344 121.983 23.344 121.956 23.344C121.27 23.2892 120.886 22.8505 120.694 22.494C120.365 21.8634 120.365 21.1231 120.502 20.8489C120.749 20.3828 121.654 19.5602 122.394 19.6425C122.833 19.6973 123.628 19.9441 123.875 21.0134C123.985 21.5069 123.793 22.165 123.381 22.6585C123.052 23.0973 122.586 23.344 122.065 23.344ZM122.285 19.7795C121.654 19.7795 120.859 20.4924 120.612 20.9037C120.475 21.1231 120.502 21.836 120.804 22.4118C120.996 22.7408 121.325 23.1521 121.956 23.1795C122.449 23.2069 122.943 22.9876 123.299 22.5763C123.683 22.1376 123.875 21.4795 123.765 21.0408C123.519 20.0537 122.806 19.8344 122.394 19.7795C122.367 19.807 122.34 19.7795 122.285 19.7795Z" fill="white"/>
<path d="M32.6801 15.3098C32.543 15.7211 33.3107 19.3953 34.051 19.8065C34.8188 20.2178 37.2316 20.4372 38.9042 20.163C40.5768 19.8888 43.6203 20.8485 43.6203 20.8485C43.6203 20.8485 42.7155 16.5711 42.3042 16.1324C41.8929 15.7211 40.9332 15.5017 39.5348 15.7759C38.1639 16.0501 35.9429 16.4066 35.1752 16.1324C34.4075 15.8582 32.6801 15.3098 32.6801 15.3098Z" fill="#004C1B"/>
<path d="M38.081 19.8345C38.0536 19.8345 37.9987 19.8345 37.9713 19.8345C37.2858 19.7797 36.902 19.341 36.71 18.9845C36.381 18.3539 36.381 17.6136 36.5181 17.3394C36.7649 16.8732 37.6971 16.0507 38.41 16.1329C38.8487 16.1878 39.6439 16.4345 39.8906 17.5039C40.0003 17.9974 39.8084 18.6555 39.3971 19.149C39.0681 19.6152 38.5745 19.8345 38.081 19.8345ZM38.3003 16.2974C37.6697 16.2974 36.8746 17.0103 36.6278 17.4216C36.4907 17.641 36.5181 18.3539 36.8197 18.9297C37.0116 19.2587 37.3407 19.67 37.9713 19.6974C38.4649 19.7248 38.9584 19.5055 39.3148 19.0942C39.6987 18.6555 39.8906 17.9974 39.781 17.5587C39.5342 16.5716 38.8213 16.3523 38.41 16.2974C38.3552 16.2974 38.3278 16.2974 38.3003 16.2974Z" fill="white"/>
<path d="M31.5824 42.51C31.1986 42.7294 29.2792 45.9374 29.5808 46.76C29.855 47.5825 31.5002 49.3648 32.926 50.2696C34.3518 51.1744 35.9421 53.9438 35.9421 53.9438C35.9421 53.9438 38.163 50.1599 38.1356 49.5841C38.1082 49.0083 37.5324 48.1858 36.3259 47.4729C35.1195 46.7325 33.255 45.4987 32.8711 44.7858C32.4873 44.0729 31.5824 42.51 31.5824 42.51Z" fill="#004C1B"/>
<path d="M33.6662 49.9131C33.1727 49.9131 32.7614 49.7486 32.4323 49.4195C31.9388 48.926 31.9662 48.3228 32.0759 47.9389C32.2404 47.2534 32.7614 46.7051 33.0356 46.5954C33.5291 46.4309 34.763 46.4309 35.2565 47.0067C35.5581 47.3357 35.9694 48.0486 35.4484 49.0083C35.2017 49.447 34.5984 49.8034 33.9678 49.9131C33.8581 49.9131 33.7485 49.9131 33.6662 49.9131ZM33.7485 46.6502C33.4743 46.6502 33.2275 46.6776 33.063 46.7325C32.8162 46.8147 32.3501 47.3357 32.1856 47.9663C32.1033 48.3228 32.0759 48.8712 32.5146 49.3099C32.871 49.6663 33.3646 49.8308 33.913 49.7486C34.4888 49.6663 35.0646 49.3099 35.2839 48.926C35.7501 48.0486 35.3936 47.3905 35.1194 47.0615C34.8452 46.7599 34.2694 46.6502 33.7485 46.6502Z" fill="white"/>
<path d="M107.094 17.1745C107.094 17.1745 111.042 18.9567 111.673 18.7374C112.303 18.518 113.51 17.339 113.976 16.2422C114.442 15.1455 115.868 12.5681 116.663 11.9923C117.458 11.4165 118.308 10.731 118.308 10.731C118.308 10.731 114.113 8.8665 113.482 9.33262C112.879 9.77133 111.316 10.4568 110.823 11.8826C110.549 12.6229 110.055 14.5422 108.849 15.968C108.245 16.6535 107.094 17.1745 107.094 17.1745Z" fill="#004C1B"/>
<path d="M112.331 16.3794C111.81 16.3794 111.426 16.1326 111.152 15.8859C110.576 15.3375 110.302 14.5697 110.356 14.2407C110.466 13.6649 111.097 12.4585 111.919 12.294C112.413 12.1843 113.318 12.1569 114.003 13.1714C114.305 13.6375 114.36 14.4326 114.085 15.0907C113.839 15.7213 113.4 16.16 112.797 16.3246C112.632 16.352 112.495 16.3794 112.331 16.3794ZM112.358 12.3762C112.194 12.3762 112.056 12.4036 111.947 12.431C111.234 12.5956 110.603 13.7197 110.494 14.2681C110.439 14.5423 110.713 15.31 111.261 15.8036C111.563 16.0778 112.084 16.3794 112.769 16.1875C113.318 16.0229 113.729 15.6391 113.948 15.0359C114.168 14.4326 114.14 13.6649 113.866 13.2262C113.427 12.5407 112.824 12.3762 112.358 12.3762Z" fill="white"/>
<path d="M147.264 9.85352C147.264 9.85352 146.88 14.1857 147.292 14.6793C147.703 15.1728 149.239 15.9405 150.418 15.9954C151.597 16.0502 154.503 16.5438 155.326 17.0922C156.148 17.6405 157.08 18.2163 157.08 18.2163C157.08 18.2163 157.437 13.6373 156.806 13.1986C156.176 12.7599 155.024 11.5535 153.516 11.5261C152.748 11.5261 150.747 11.6906 148.992 11.0325C148.169 10.7583 147.264 9.85352 147.264 9.85352Z" fill="#004C1B"/>
<path d="M151.624 15.7484C151.597 15.7484 151.597 15.7484 151.569 15.7484C150.911 15.7484 150.335 15.4468 149.979 14.9533C149.54 14.3226 149.65 13.692 149.842 13.2533C150.143 12.513 150.802 11.992 151.131 11.9372C151.706 11.8549 153.05 12.0469 153.489 12.7598C153.763 13.171 154.092 14.0485 153.352 15.0081C153.022 15.4468 152.337 15.7484 151.624 15.7484ZM151.432 12.0743C151.323 12.0743 151.24 12.0743 151.158 12.1017C150.884 12.1565 150.253 12.6501 149.979 13.3356C149.814 13.7194 149.705 14.3226 150.116 14.8984C150.445 15.3646 150.966 15.6388 151.597 15.6388C152.255 15.6388 152.968 15.3646 153.269 14.9533C153.955 14.0485 153.653 13.2533 153.406 12.8694C153.05 12.2936 152.063 12.0743 151.432 12.0743Z" fill="white"/>
<path d="M56.3145 21.5892C56.3145 21.5892 52.8049 19.3957 52.2017 19.5328C51.5985 19.6699 50.3098 20.6295 49.7065 21.6166C49.1033 22.6037 47.4582 24.8521 46.6356 25.3182C45.813 25.7843 44.9082 26.3053 44.9082 26.3053C44.9082 26.3053 48.6646 28.5811 49.2953 28.252C49.9259 27.8956 51.4888 27.4569 52.1468 26.1682C52.4759 25.5101 53.2162 23.7553 54.5323 22.5489C55.1629 21.9457 56.3145 21.5892 56.3145 21.5892Z" fill="#004C1B"/>
<path d="M50.9681 25.6197C50.4745 25.6197 49.7342 25.4552 49.2955 24.523C49.0762 24.0568 49.131 23.2891 49.4326 22.6859C49.7342 22.1101 50.2278 21.7536 50.8036 21.6988C51.5439 21.5891 52.0374 21.973 52.3116 22.302C52.8052 22.8778 52.9697 23.673 52.86 23.9746C52.6955 24.4955 51.9278 25.5649 51.1326 25.6197V25.5649V25.6197C51.1052 25.6197 51.0503 25.6197 50.9681 25.6197ZM51.0503 21.8085C50.9681 21.8085 50.9133 21.8085 50.831 21.8359C50.2826 21.9182 49.8439 22.2472 49.5697 22.7681C49.2681 23.3165 49.2133 24.0294 49.4326 24.4681C49.8988 25.4278 50.7213 25.5375 51.16 25.4826C51.8455 25.4278 52.5858 24.4407 52.7778 23.9197C52.86 23.6456 52.6955 22.9052 52.2568 22.3843C51.9826 22.1101 51.5987 21.8085 51.0503 21.8085Z" fill="white"/>
<path d="M49.4048 79.3613L58.5354 85.3113L55.2725 89.7806L46.3613 84.6258L49.4048 79.3613Z" fill="#683123"/>
<path d="M47.1285 76.7016L46.4156 75.5774L33.7754 85.4483C33.7754 85.4483 34.2964 86.1063 34.598 86.4902C37.6689 84.9821 42.1382 84.3789 44.5785 84.6257C45.8124 84.7354 46.7446 84.9273 47.7043 85.4483L47.9236 85.2289L51.3784 80.5951C49.651 79.5257 48.472 78.7854 47.1285 76.7016Z" fill="#020202"/>
<path d="M33.858 85.5302L32.9258 84.3786L32.9806 84.3512L45.4563 74.4529L46.4982 75.6045L33.858 85.5302ZM33.0629 84.406L33.858 85.3657L46.2789 75.6045L45.4015 74.6174L33.0629 84.406Z" fill="#020202"/>
<path d="M42.1116 84.7628L42.0293 84.6805L43.9486 81.8838L44.0309 81.966L42.1116 84.7628Z" fill="white"/>
<path d="M137.311 39.5485C137.311 39.5485 138.901 36.8889 139.861 35.6276C140.519 34.7776 140.82 34.3937 141.314 33.955C141.643 33.6534 141.78 33.7083 141.917 33.8454C141.999 33.9002 141.972 34.0647 141.89 34.2292C141.533 34.9421 140.985 35.9018 141.314 35.7647C141.725 35.6002 143.973 32.9954 144.494 32.9405C144.796 32.8857 144.906 33.2421 144.851 33.3244C144.796 33.4066 145.18 33.2147 145.344 33.5163C145.454 33.7083 145.207 33.9824 145.207 33.9824C145.207 33.9824 145.454 33.9824 145.509 34.2566C145.564 34.5308 145.043 35.4631 144.33 36.3131C143.781 36.9711 143.452 37.3002 143.452 37.3824C143.452 37.4647 144.988 35.8195 145.427 35.8195C145.728 35.8195 145.783 36.2308 145.564 36.3953C145.344 36.5598 143.507 38.4792 143.178 38.8356C142.849 39.1646 141.588 40.8372 140.82 41.5227C140.025 42.263 140.217 42.592 139.751 42.3453C139.312 42.0711 137.311 39.5485 137.311 39.5485Z" fill="#683123"/>
<path d="M144.877 33.3241L142.602 35.737L142.574 35.7096L144.85 33.2693L144.877 33.3241Z" fill="#020202"/>
<path d="M145.236 33.9549L143.453 36.2855L143.398 36.2581L145.208 33.9275L145.236 33.9549Z" fill="#020202"/>
<path d="M120.831 49.7211C117.102 50.763 105.833 53.0662 101.665 53.9985C99.6909 54.4372 102.789 68.4483 103.557 68.5854C104.544 68.7499 116.828 64.6371 128.262 55.013C132.539 51.3936 138.626 45.5808 138.653 43.5518C138.681 41.5502 138.9 41.276 136.268 40.6454C133.608 40.0147 123.847 48.213 120.831 49.7211Z" fill="#FFE0DB"/>
<path d="M74.9593 109.577C74.9319 109.577 74.9044 109.549 74.9044 109.522L74.8496 109.412L75.1512 109.467L75.0415 109.549C75.0141 109.577 74.9867 109.604 74.9593 109.577ZM74.9867 109.44C74.9867 109.44 74.9593 109.44 74.9319 109.44L74.9593 109.467L75.0141 109.44C75.0141 109.467 74.9867 109.467 74.9867 109.44Z" fill="#91C9D0"/>
<path d="M57.4109 80.485C57.4109 80.485 53.1883 82.185 50.5013 85.4752C47.4303 89.2317 46.0868 91.809 45.9497 92.9332C45.8126 94.0574 75.2333 112.154 75.2333 112.154C75.2333 112.154 80.909 104.97 83.6509 100.775C86.3928 96.5525 102.186 76.3995 102.186 76.3995L87.0235 71.0254L71.2849 91.7268C71.2849 91.6994 61.6882 81.8011 57.4109 80.485Z" fill="#FDA294"/>
<path d="M104.188 44.484C105.34 42.4276 104.133 38.7808 101.227 37.9857C99.006 37.3825 98.4302 36.6696 99.335 33.7906C100.24 30.9116 102.461 28.91 100.898 25.6471C99.664 23.0697 95.6883 23.1245 95.8528 20.6843C96.0447 18.244 96.0447 13.0343 94.756 10.6489C92.3157 6.0973 88.998 5.00054 84.6932 4.89087C75.1788 4.64409 71.8885 11.6634 71.2579 14.2133C70.6273 16.7633 69.0644 25.181 80.6901 27.8406C85.7352 28.9648 83.8158 34.147 83.8158 34.147C83.761 36.1212 82.9658 37.4373 85.1868 40.0695C87.4626 42.784 90.0674 42.976 91.8496 43.3872C93.6044 43.8259 95.5786 45.1146 96.127 46.2937C96.6754 47.4727 98.2383 48.3227 98.7592 47.7743C98.8689 47.6646 98.7592 46.5953 98.677 46.4582C97.7173 44.8953 99.006 42.9211 99.8011 44.1001L104.188 44.484Z" fill="#020202"/>
<path d="M68.2142 121.395C70.3803 115.554 74.6302 100.364 74.6302 100.364C74.6302 100.364 70.9835 98.8561 70.3528 98.582C65.9658 96.7449 61.0578 94.9078 56.7256 92.9885C56.5062 92.9062 56.2046 92.9885 56.2046 92.9885L47.8144 112.017C47.8144 112.017 46.8273 113.909 46.3337 114.869C46.2515 115.006 46.416 115.225 46.6902 115.308C53.6272 117.967 60.5368 121.038 67.5561 123.396L68.2142 121.395Z" fill="#EE3A24"/>
<path d="M69.9412 99.898C69.9412 99.898 72.9299 93.9207 72.7653 93.7561C72.546 93.5094 67.117 91.5626 64.1283 90.2465C62.9219 89.7255 61.9622 89.6159 61.9348 89.6707C61.8251 89.8901 60.0703 95.2916 60.0703 95.2916L61.0848 95.8126L62.7848 91.1787L66.5412 92.8239L70.6815 94.3868L68.5976 99.4045L69.9412 99.898Z" fill="#EE3A24"/>
<path d="M64.7592 90.5481C64.5673 90.4659 64.3205 90.3288 64.1286 90.2465C62.9221 89.7255 61.9625 89.6159 61.935 89.6707C61.8254 89.8901 59.9883 95.2916 59.9883 95.2916L61.1125 95.8126L62.8124 91.1787L64.0463 91.7271L64.7592 90.5481Z" fill="#EE3A24"/>
<path d="M69.9412 99.8977L68.5977 99.3768L69.2283 97.8413C69.2557 97.8413 69.2009 98.0332 69.2283 98.0332C69.4202 98.1155 69.996 98.3623 70.5993 98.609C70.188 99.4864 69.9412 99.8977 69.9412 99.8977Z" fill="#E02C1E"/>
<path d="M61.085 95.8126L60.0156 95.3739C60.0156 95.3739 60.2076 94.8803 60.3995 94.2771C60.7559 94.4142 61.1124 94.5787 61.4963 94.7158L61.085 95.8126Z" fill="#E02C1E"/>
<path d="M59.44 104.614C59.4675 105.108 59.3029 105.354 59.4949 105.82C59.6868 106.287 59.7965 106.588 59.9884 106.67C60.1803 106.753 61.4142 107.109 62.1271 107.383C62.8126 107.658 63.3884 107.904 63.3061 108.261C63.2239 108.617 63.169 108.837 62.6206 108.699C62.0997 108.562 61.0578 108.041 60.8384 108.041C60.6191 108.041 59.961 107.685 60.1529 108.151C60.3449 108.617 60.7013 109.769 60.9207 109.851C61.2771 109.961 62.4835 110.454 62.9497 110.591C63.7174 110.838 64.869 109.741 65.0609 109.056C65.2529 108.37 65.1158 106.999 64.4577 106.643C63.7997 106.287 61.7707 105.464 61.3319 105.272C60.8932 105.08 59.44 104.614 59.44 104.614Z" fill="white"/>
<path d="M101.5 54.0257C101.5 54.0257 103.337 54.5192 104.489 56.1095C106.052 58.2756 107.011 60.4418 106.819 63.5127C106.6 66.7756 103.392 73.8497 103.392 73.8497L86.5294 69.1336C86.5294 69.1336 86.0907 64.8836 86.7213 61.5659C88.8326 50.5983 96.9486 52.1338 96.9486 52.1338L101.5 54.0257Z" fill="#FFE0DB"/>
<path d="M69.7212 89.7527C69.7212 89.7527 69.3921 92.8237 69.0631 94.3865C68.8438 95.4285 68.7341 95.922 68.4599 96.5252C68.268 96.9365 68.1583 96.9365 67.9664 96.8817C67.8567 96.8543 67.8293 96.7172 67.8293 96.5252C67.8293 95.7301 67.9664 94.3043 67.7744 94.5785C67.6099 94.7978 67.3357 95.3188 67.1438 95.4559C66.7599 95.7575 66.4857 95.264 66.5131 95.1817C66.5406 95.072 66.376 95.3736 66.047 95.264C65.8002 95.1817 65.8551 94.8527 65.8551 94.8527C65.8551 94.8527 65.1148 95.0994 65.2793 94.2769C65.197 94.414 64.9777 94.4962 64.9777 94.4962C64.7035 94.5511 64.5115 94.222 64.6212 93.9753C64.7309 93.7011 66.0196 88.8205 66.2664 88.3544C66.5406 87.8608 69.7212 89.7527 69.7212 89.7527Z" fill="#683123"/>
<path d="M70.1873 88.2996L69.6389 90.5754L65.9922 89.177L66.6502 86.4077L70.1873 88.2996Z" fill="#F56A49"/>
<path d="M97.7446 71.8483L97.5801 71.7935C99.2801 65.7613 100.377 59.0436 100.377 58.9888L100.569 59.0162C100.541 59.071 99.4446 65.7887 97.7446 71.8483Z" fill="#F56A49"/>
<path d="M110.988 138.12C111.537 138.093 121.545 135.872 125.712 130.525C126.343 129.703 119.57 129.209 113.785 132.061C112.716 132.582 110.988 138.12 110.988 138.12Z" fill="#F56A49"/>
<path d="M119.624 129.373L123.655 138.093L119.515 140.039L116.91 138.586L113.428 130.964L119.624 129.373Z" fill="#683123"/>
<path d="M116.553 137.709C116.855 138.504 116.636 138.861 116.224 139.601C115.621 140.67 114.826 142.096 114.908 142.124C115.758 142.316 130.482 148.128 130.482 148.128C130.482 148.128 130.784 147.662 131.058 146.812C125.053 142.398 122.366 135.324 122.366 135.324L116.279 137.216L116.553 137.709Z" fill="#020202"/>
<path d="M130.098 149.116L114.441 143.056L114.853 142.014L114.908 142.042L130.536 148.046L130.098 149.116ZM114.606 143.001L130.043 148.979L130.427 148.156L114.962 142.206L114.606 143.001Z" fill="#020202"/>
<path d="M122.777 141.822L122.75 141.713L125.574 141.219L125.602 141.356L122.777 141.822Z" fill="white"/>
<path d="M88.8066 86.1886L111.044 138.312C111.044 138.312 113.045 134.748 117.953 132.499C119.982 131.595 122.806 130.58 125.685 130.662C128.427 130.717 102.132 76.2629 102.132 76.2629L88.8066 86.1886Z" fill="#FDA294"/>
<path d="M106.821 63.4854C107.013 60.4419 104.49 56.0823 104.49 56.0823C104.49 56.0823 102.681 56.4387 102.324 56.329C102.324 56.329 103.394 67.2144 104.134 67.4612C104.765 67.6805 105.285 67.8451 105.669 68.0644C106.245 66.3918 106.739 64.6644 106.821 63.4854Z" fill="#FEC8C0"/>
<path d="M101.856 76.4822L91.6016 85.2563L90.8613 91.0417C95.7693 84.6531 101.061 77.7983 101.939 76.6741C101.884 76.537 101.856 76.4822 101.856 76.4822Z" fill="#F98D82"/>
<path d="M96.1816 54.1629C96.1816 54.1629 97.1139 53.121 97.6623 51.5855C98.3477 49.6662 98.3752 46.2388 98.3752 46.2388L102.899 49.2C102.899 49.2 102.214 51.229 102.049 52.6C101.83 54.2177 101.583 55.9451 101.583 55.9451L96.1816 54.1629Z" fill="#683123"/>
<path d="M98.2384 45.5257C98.2384 45.5257 97.1691 44.8951 96.7578 45.937C96.4836 46.6225 97.3062 47.4451 97.7723 47.637C98.3207 47.8289 98.5675 47.8289 98.8416 47.8838C99.1158 48.3225 99.7739 49.8579 101.584 50.4063C103.887 50.8725 105.395 49.0902 105.148 47.308C104.984 46.129 104.38 44.0451 103.393 42.8387C102.516 41.7693 101.446 40.6177 99.3626 41.5226C97.69 42.3177 98.0739 45.1693 98.2384 45.5257Z" fill="#683123"/>
<path d="M98.2373 45.5259C98.2373 45.5259 101.116 43.6888 100.266 41.0017C98.2373 41.0565 98.0179 41.934 97.7437 42.5372C97.4969 43.1404 98.2373 45.5259 98.2373 45.5259Z" fill="#020202"/>
<path d="M103.586 43.031C103.586 43.031 100.076 41.7423 99.4727 40.0972C101.557 40.0972 102.598 41.1939 102.708 41.4133C102.818 41.6326 103.586 43.031 103.586 43.031Z" fill="#020202"/>
<path d="M101.528 47.2536C100.678 47.2536 99.9099 46.5956 99.718 45.6633C99.5261 44.6214 100.157 43.6343 101.116 43.4424C102.076 43.2504 103.036 43.9359 103.255 44.9778C103.365 45.4714 103.255 45.9923 103.008 46.4036C102.734 46.8149 102.35 47.1165 101.857 47.1988C101.747 47.2536 101.637 47.2536 101.528 47.2536ZM101.445 43.552C101.336 43.552 101.253 43.552 101.144 43.5795C100.239 43.744 99.6632 44.6762 99.8277 45.6633C100.02 46.6504 100.897 47.281 101.802 47.1165C102.241 47.0343 102.624 46.7601 102.871 46.3762C103.118 45.9923 103.2 45.4988 103.118 45.0327C102.953 44.1553 102.241 43.552 101.445 43.552Z" fill="white"/>
<path d="M105.147 45.8552C104.79 45.8552 104.434 45.7455 104.105 45.4987C103.694 45.1971 103.419 44.7584 103.337 44.2649C103.145 43.2229 103.776 42.2359 104.736 42.0439C105.695 41.852 106.655 42.5375 106.874 43.5794C106.984 44.0729 106.874 44.5939 106.627 45.0052C106.353 45.4165 105.969 45.7181 105.476 45.8003C105.339 45.8278 105.256 45.8552 105.147 45.8552ZM105.065 42.1262C104.955 42.1262 104.873 42.1262 104.763 42.1536C103.858 42.3181 103.282 43.2504 103.447 44.2374C103.529 44.7036 103.803 45.1149 104.16 45.389C104.544 45.6632 104.982 45.7729 105.421 45.6907C105.86 45.6084 106.244 45.3342 106.49 44.9503C106.737 44.5665 106.819 44.0729 106.737 43.6068C106.573 42.7294 105.86 42.1262 105.065 42.1262Z" fill="white"/>
<path d="M103.09 44.7034L103.035 44.5937L103.446 44.4292L103.501 44.5389L103.09 44.7034Z" fill="white"/>
<path d="M81.5672 71.958C84.5833 69.5177 90.0397 66.4468 94.7558 61.9227C96.209 60.5243 98.1832 57.8921 98.4299 57.5904C100.322 55.205 99.3348 50.297 91.5203 52.9018C87.5446 54.2179 78.2769 60.4694 74.3286 68.1468C72.7657 71.1903 65.4996 85.9143 66.4319 87.4772C68.2964 88.1627 69.8318 88.6014 70.1335 88.6837C71.8883 88.4643 80.0317 74.7548 81.5672 71.958Z" fill="#FFE0DB"/>
<path d="M57.6032 52.6274C57.6032 52.6274 63.7451 48.2678 72.3547 48.1307C86.832 47.9113 90.5061 54.2451 90.5061 54.2451L96.5657 48.4871C96.5657 48.4871 88.7787 41.8791 77.4546 39.905C69.4209 38.5066 55.5742 41.8243 55.5742 41.8243L57.6032 52.6274Z" fill="#EE3A24"/>
<path d="M96.5653 48.5422C96.5653 48.5422 92.5073 49.968 90.7524 52.2164C89.3815 53.9712 91.246 56.3567 95.5234 57.8921C99.7185 59.4276 103.31 59.2631 104.901 58.1938C106.491 57.1244 104.517 51.1745 103.393 51.0922C102.268 51.0374 99.7733 52.4632 96.5653 48.5422Z" fill="#EE3A24"/>
<path d="M90.7521 52.2164C90.286 52.8196 90.2037 53.4777 90.4505 54.1631C90.4779 54.218 90.5053 54.2454 90.5053 54.2454L96.4827 48.5422C95.9069 48.7616 92.3698 50.1325 90.7521 52.2164Z" fill="#E02C1E"/>
<path d="M113.785 132.061C112.716 132.582 110.988 138.148 110.988 138.148C111.016 138.148 111.071 138.148 111.18 138.12C111.701 137.325 113.758 134.446 117.953 132.527C119.954 131.622 122.751 130.635 125.603 130.69C125.63 130.635 125.685 130.58 125.712 130.553C126.343 129.703 119.57 129.209 113.785 132.061Z" fill="#F98D82"/>
<path d="M86.5029 68.8047L86.1738 72.0676L102.077 76.6191L103.53 73.4659L86.5029 68.8047Z" fill="#F56A49"/>
<path d="M140.984 28.2246C140.984 28.2246 137.748 30.1439 138.022 31.981C138.159 32.9681 141.532 34.9423 141.998 37.1084C142.355 38.6987 143.15 41.139 143.15 41.139C143.342 40.9745 146.111 37.0261 146.111 36.6971C146.111 35.7649 146.111 32.8036 144.164 31.8439C141.943 30.7746 140.984 28.2246 140.984 28.2246Z" fill="#004C1B"/>
<path d="M142.3 35.6003C142.272 35.6003 142.218 35.6003 142.19 35.6003C141.669 35.5728 141.285 35.3261 141.011 34.9148C140.6 34.2567 140.572 33.3793 140.682 33.0503C140.956 32.3374 141.916 31.7067 142.656 31.8164C143.122 31.8713 143.918 32.1455 144.192 33.2148C144.329 33.7083 144.109 34.4212 143.698 34.9148C143.314 35.3809 142.821 35.6003 142.3 35.6003ZM142.492 31.9535C141.834 31.9535 141.039 32.5019 140.792 33.1051C140.682 33.3793 140.709 34.2293 141.093 34.8325C141.34 35.2164 141.724 35.4357 142.19 35.4632C142.711 35.4906 143.205 35.2712 143.561 34.8325C143.945 34.3664 144.137 33.7083 144.027 33.2422C143.78 32.2277 143.04 31.9809 142.601 31.9261C142.574 31.9535 142.547 31.9535 142.492 31.9535Z" fill="white"/>
<path d="M142.465 39.6309C142.136 39.9599 141.588 40.7825 140.848 41.4679C140.052 42.2083 140.244 42.5373 139.778 42.2905C139.312 42.0712 137.311 39.5486 137.311 39.5486C137.311 39.5486 138.901 36.889 139.861 35.6277C140.519 34.7777 140.82 34.3938 141.314 33.9551C141.643 33.6535 141.78 33.7083 141.917 33.8454C141.999 33.9003 141.972 34.0648 141.89 34.2293C141.533 34.9422 140.985 35.9019 141.314 35.7648" fill="#683123"/>
<path d="M136.24 40.6727L137.776 38.863L140.6 41.8791L138.571 43.8533L136.24 40.6727Z" fill="#F56A49"/>
<path d="M99.2796 38.7534C99.1151 38.6712 98.9231 38.5889 98.7312 38.5066C97.0312 37.7389 95.249 36.9438 94.8377 35.6276C94.6458 34.997 94.7554 34.3115 95.2216 33.5712C95.4135 33.2696 95.6054 32.968 95.8248 32.639C96.8119 31.1857 97.936 29.568 97.3602 26.7713C97.0312 25.1261 95.6328 24.66 94.1522 24.1665C92.8087 23.7278 91.4103 23.2616 90.7248 21.8633C89.6006 19.5326 89.7926 18.9568 90.1764 17.8052C90.3958 17.1472 90.6974 16.2149 90.8345 14.5972C90.999 12.4037 88.641 11.0327 86.612 10.265C84.391 9.41501 82.1152 9.1134 82.1152 9.08598L82.1427 8.89404C82.1701 8.89404 84.4733 9.22307 86.6942 10.0731C89.6829 11.2247 91.1909 12.7876 91.0264 14.5972C90.8893 16.2424 90.5877 17.1746 90.3684 17.8601C89.9845 18.9843 89.82 19.5052 90.9168 21.7536C91.5474 23.0697 92.8909 23.5084 94.207 23.9471C95.6877 24.4407 97.1957 24.9342 97.5522 26.689C98.128 29.5406 96.9764 31.2132 95.9619 32.6938C95.7425 33.0228 95.5506 33.3244 95.3586 33.626C94.9474 34.3389 94.8103 34.9422 95.0022 35.518C95.3861 36.7518 97.1135 37.5196 98.786 38.2599C98.978 38.3421 99.1425 38.4244 99.3344 38.5066L99.2796 38.7534Z" fill="#2D0303"/>
<path d="M88.6679 41.6049C84.747 40.9194 82.4163 39.4936 81.9502 37.5194C81.7034 36.4775 81.868 35.3259 82.0599 34.1469C82.2244 33.0775 82.3889 32.0082 82.2792 30.884C82.1421 29.5131 80.8534 29.0195 79.0712 28.334C77.8373 27.8679 76.3293 27.2921 74.7664 26.2502C73.1761 25.1809 72.2713 22.8502 72.0519 19.2858C71.8874 16.6535 72.2164 14.2955 72.2164 14.2681L72.4084 14.2955C72.4084 14.3777 71.2019 23.6454 74.8761 26.0857C76.3841 27.1002 77.9196 27.676 79.126 28.1421C80.9905 28.855 82.3341 29.3486 82.4712 30.8566C82.5808 32.0082 82.4163 33.105 82.2518 34.1743C82.0599 35.3533 81.8954 36.4775 82.1421 37.4646C82.5808 39.3565 84.8566 40.7 88.6953 41.3855L88.6679 41.6049Z" fill="#2D0303"/>
<path d="M99.4172 33.3517L99.2527 33.2146C99.2801 33.1597 102.982 28.1695 101.528 24.3856C101.172 23.4808 100.432 23.234 99.5543 22.9324C98.7591 22.6857 97.8817 22.384 97.1962 21.5341C96.3188 20.4373 96.5656 19.4776 96.8672 18.2712C97.0591 17.5309 97.2785 16.6809 97.2785 15.639C97.2785 12.9793 94.043 10.8406 94.0156 10.8132L94.1253 10.6487C94.2624 10.7309 97.4978 12.897 97.4978 15.6664C97.4978 16.7357 97.2785 17.5857 97.0866 18.3534C96.7849 19.5599 96.5656 20.4373 97.3607 21.4518C97.9914 22.2469 98.814 22.5211 99.6091 22.7679C100.514 23.0695 101.337 23.3437 101.72 24.3308C103.201 28.2243 99.4446 33.2968 99.4172 33.3517Z" fill="#2D0303"/>
<path d="M81.9517 147.415C81.1017 147.415 80.2517 147.388 79.3743 147.333C71.8341 146.922 65.3084 143.769 59.9891 137.928C55.6294 133.157 53.2988 127.893 52.1472 124.575C51.6537 125.59 51.0504 126.577 50.3924 127.454C48.7747 129.62 46.8279 131.074 44.9086 131.595C42.4134 132.253 39.9457 131.266 37.7796 128.798C33.3926 123.725 29.0878 107.767 33.2829 88.1902L33.5571 88.245C29.3894 107.74 33.6393 123.588 37.999 128.606C40.1102 131.046 42.4134 131.951 44.8537 131.32C47.8424 130.553 50.5021 127.454 52.0375 124.191C51.7908 123.451 51.5988 122.848 51.4891 122.354C50.5021 118.735 50.4198 115.911 51.2972 115.335C51.5166 115.198 51.873 115.116 52.4214 115.554C53.6278 116.487 53.9843 118.406 53.4633 120.929C53.244 121.998 52.8601 123.122 52.3666 124.219C53.4907 127.509 55.8214 132.883 60.2632 137.764C65.5551 143.549 71.9986 146.702 79.4566 147.086C94.6742 147.881 104.271 141.356 108.603 137.407C108.713 137.298 108.822 137.215 108.877 137.161L109.042 137.38C108.987 137.435 108.905 137.517 108.795 137.599C104.572 141.356 95.7709 147.415 81.9517 147.415ZM51.5988 115.472C51.5166 115.472 51.4343 115.5 51.3795 115.527C50.7488 115.938 50.6392 118.406 51.6811 122.245C51.7908 122.656 51.9553 123.177 52.1472 123.78C52.5859 122.793 52.9149 121.779 53.1069 120.819C53.6004 118.433 53.2714 116.569 52.1472 115.719C51.9553 115.554 51.7633 115.472 51.5988 115.472Z" fill="#F69271"/>
<path d="M129.907 120.874L129.715 120.682C135.583 114.129 139.887 106.342 142.52 97.54C144.631 90.4933 145.7 82.7886 145.673 74.6451C145.618 60.7711 142.41 50.2422 142.382 50.1599L142.657 50.0776C142.684 50.1873 145.92 60.7162 145.974 74.6451C146.002 82.816 144.932 90.5482 142.821 97.6223C140.134 106.451 135.802 114.293 129.907 120.874Z" fill="#F69271"/>
<path d="M116.829 41.3308C116.829 41.3308 116.308 45.6356 116.692 46.1566C117.076 46.6775 118.584 47.4727 119.763 47.5824C120.942 47.692 123.821 48.2678 124.643 48.8711C125.439 49.4469 126.343 50.0501 126.343 50.0501C126.343 50.0501 126.837 45.4711 126.234 45.0324C125.631 44.5663 124.506 43.3324 122.998 43.2501C122.231 43.2227 120.229 43.305 118.502 42.5921C117.706 42.2905 116.829 41.3308 116.829 41.3308Z" fill="#004C1B"/>
<path d="M121.078 47.3627C121.023 47.3627 120.996 47.3627 120.941 47.3627C120.283 47.3353 119.735 47.0337 119.378 46.5127C118.94 45.8547 119.104 45.224 119.296 44.8127C119.625 44.0998 120.31 43.6063 120.639 43.5515C121.215 43.4692 122.559 43.7434 122.97 44.4563C123.217 44.895 123.518 45.745 122.751 46.7047C122.422 47.1159 121.736 47.3627 121.078 47.3627ZM120.831 43.6886C120.749 43.6886 120.694 43.6886 120.639 43.6886C120.365 43.716 119.707 44.2095 119.406 44.8676C119.214 45.2514 119.104 45.8272 119.488 46.4305C119.79 46.8966 120.31 47.1982 120.941 47.2256C121.599 47.253 122.312 47.0063 122.641 46.595C123.354 45.7176 123.08 44.9224 122.86 44.5111C122.504 43.9628 121.462 43.6886 120.831 43.6886Z" fill="white"/>
</g>
</g>
<defs>
<clipPath id="clip0_1251_86325">
<rect width="167.832" height="150" fill="white"/>
</clipPath>
<clipPath id="clip1_1251_86325">
<rect width="167.832" height="167.832" fill="white" transform="translate(0 -17.8323)"/>
</clipPath>
</defs>
</svg>
